<?xml version="1.0" encoding="UTF-8"?>
<svg version="1.1" xmlns="http://www.w3.org/2000/svg" width="416" height="640">
<path d="M0 0 C1.32136963 0.37753418 1.32136963 0.37753418 2.66943359 0.76269531 C36.1705794 10.67649055 65.00317361 32.36789869 82.12695312 63.01708984 C89.82684885 77.51203874 95.12935394 93.67436167 97 110 C97.10957031 110.825 97.21914063 111.65 97.33203125 112.5 C101.10806537 145.52771176 94.46057334 180.23203187 74 207 C69.59856915 212.25808518 64.91237006 217.21690283 60 222 C59.53851563 222.50660156 59.07703125 223.01320312 58.6015625 223.53515625 C53.9827656 228.48064854 48.68237022 232.14468595 43.0859375 235.88671875 C40.27603502 237.81096842 37.62778074 239.83623258 35 242 C35.825 242.43828125 36.65 242.8765625 37.5 243.328125 C61.21510206 256.35025693 82.2602089 274.82726422 99 296 C99.65484375 296.78761719 100.3096875 297.57523437 100.984375 298.38671875 C106.90212155 305.54719207 112.02767401 313.16591737 117 321 C117.40476562 321.63760254 117.80953125 322.27520508 118.2265625 322.93212891 C139.90296373 357.50074457 153.28436984 396.68857406 159 437 C159.1743457 438.22904053 159.34869141 439.45808105 159.52832031 440.72436523 C160.08416815 445.25226274 160.21361758 449.750327 160.2734375 454.30859375 C160.28601089 455.18434555 160.29858429 456.06009735 160.3115387 456.96238708 C160.53434588 476.2113324 160.41336471 494.3725608 155 513 C154.75362793 513.89686523 154.50725586 514.79373047 154.25341797 515.71777344 C144.53552423 550.51673013 122.22229317 580.25606208 92 600 C91.40541992 600.3909082 90.81083984 600.78181641 90.19824219 601.18457031 C67.33432909 616.00951668 41.54113695 625.31912878 14.85253906 630.44873047 C12.97068395 630.81240976 11.0921716 631.19389736 9.21777344 631.59423828 C-26.43322345 639.06274962 -67.31752937 637.85880953 -103 631 C-104.03656738 630.80744629 -105.07313477 630.61489258 -106.14111328 630.41650391 C-112.81585541 629.15051336 -119.41381547 627.66380172 -126 626 C-126.87769043 625.78118164 -127.75538086 625.56236328 -128.65966797 625.33691406 C-162.03764694 616.85859977 -193.55898 601.5701241 -218 577 C-218.48162598 576.52095215 -218.96325195 576.0419043 -219.45947266 575.54833984 C-234.21189122 560.71560869 -244.18464128 542.94652876 -250.3125 523 C-250.65812988 521.88202026 -250.65812988 521.88202026 -251.01074219 520.74145508 C-255.50080479 505.18612438 -256.57719235 489.98674065 -256.5 473.875 C-256.49790527 472.86865509 -256.49581055 471.86231018 -256.49365234 470.82546997 C-256.21480997 405.53439932 -229.93079182 338.43048735 -185.28515625 290.47265625 C-183.37096117 288.40139901 -181.55412389 286.29085299 -179.75 284.125 C-165.23363802 267.5971329 -146.502945 253.13603761 -127 243 C-126.34 243 -125.68 243 -125 243 C-125 242.34 -125 241.68 -125 241 C-126.09828125 240.59587891 -126.09828125 240.59587891 -127.21875 240.18359375 C-139.40587723 234.99721798 -151.99350226 223.39757851 -160 213 C-160.75539063 212.05382812 -161.51078125 211.10765625 -162.2890625 210.1328125 C-184.44721538 181.45065266 -191.16020177 144.25616032 -187.05273438 108.8215332 C-182.7150126 76.56497475 -166.88071552 46.18770719 -141 26 C-123.80040375 13.25243108 -105.55963621 4.87171322 -85 -1 C-84.17677246 -1.24153809 -83.35354492 -1.48307617 -82.50537109 -1.73193359 C-56.90579274 -8.90323808 -25.29755023 -7.32237063 0 0 Z M29 243 C33.52406831 246.66005527 38.67814714 249.35768166 43.71289062 252.24023438 C47.74061498 254.57468499 51.4496918 256.95788701 55 260 C55.66 259.67 56.32 259.34 57 259 C51.52812614 254.25939039 45.88357132 250.12139438 39.625 246.5 C39.03058105 246.15001953 38.43616211 245.80003906 37.82373047 245.43945312 C34.51507254 243.57452203 32.90624459 243 29 243 Z M-123 243 C-134.75313465 249.79177043 -145.68678648 257.11917724 -156 266 C-152.65322764 266 -152.12280376 265.618071 -149.55078125 263.69140625 C-148.8745874 263.19543945 -148.19839355 262.69947266 -147.50170898 262.18847656 C-146.77927002 261.6519043 -146.05683105 261.11533203 -145.3125 260.5625 C-137.21517323 254.67831974 -128.82483596 249.7034119 -120 245 C-120.99 244.34 -121.98 243.68 -123 243 Z M57 260 C57.99 261.485 57.99 261.485 59 263 C59.66 262.67 60.32 262.34 61 262 C59.68 261.34 58.36 260.68 57 260 Z M62 264 C62.99 265.32 63.98 266.64 65 268 C65.66 267.67 66.32 267.34 67 267 C65.62514468 265.45833358 65.62514468 265.45833358 64 264 C63.34 264 62.68 264 62 264 Z M-158 267 C-158.33 267.66 -158.66 268.32 -159 269 C-158.01 268.67 -157.02 268.34 -156 268 C-156.66 267.67 -157.32 267.34 -158 267 Z M74 275 C74.99 276.485 74.99 276.485 76 278 C76.66 277.67 77.32 277.34 78 277 C76.68 276.34 75.36 275.68 74 275 Z M-176 285 C-176.99 285.99 -177.98 286.98 -179 288 C-178.67 288.66 -178.34 289.32 -178 290 C-177.01 289.01 -176.02 288.02 -175 287 C-175.33 286.34 -175.66 285.68 -176 285 Z M-185 295 C-184 297 -184 297 -184 297 Z " fill="#77AD06" transform="translate(256,5)"/>
<path d="M0 0 C3.00641913 1.57885495 5.78757663 2.97760251 9.03515625 3.98046875 C12.64422466 5.27041965 15.50274968 7.1884565 18.5625 9.4375 C19.16271973 9.87376709 19.76293945 10.31003418 20.38134766 10.75952148 C30.57860629 18.28606953 39.86648159 26.37629642 48.0625 36.0625 C48.8875 36.8875 49.7125 37.7125 50.5625 38.5625 C85.85736279 73.85736279 106.00713182 125.55862619 114.0625 174.0625 C114.33284058 175.58883057 114.33284058 175.58883057 114.60864258 177.14599609 C116.24325706 187.18105693 116.42049069 197.04952347 116.375 207.1875 C116.37284485 208.050336 116.3706897 208.913172 116.36846924 209.80215454 C116.28487325 230.64485717 115.79217778 257.94601243 102.0625 275.0625 C99.89173497 277.11654994 97.56733168 278.75248417 95.0625 280.375 C94.37244873 280.83302002 93.68239746 281.29104004 92.97143555 281.76293945 C69.7509521 296.81482062 44.78922495 305.51789005 18.0625 312.0625 C17.20946289 312.27390625 16.35642578 312.4853125 15.47753906 312.703125 C-8.66828451 318.57831101 -33.79511409 320.18666594 -58.578125 320.30078125 C-59.34812584 320.30485678 -60.11812668 320.3089323 -60.91146088 320.31313133 C-65.00428475 320.3338226 -69.09707699 320.34818425 -73.18994141 320.35766602 C-76.48603395 320.36642132 -79.78169044 320.38706812 -83.07763672 320.41918945 C-144.00821069 320.99915155 -214.64155838 312.56291708 -262.796875 271.328125 C-266.28724204 267.63394091 -267.69632748 263.92956978 -268.9375 259.0625 C-269.20820313 258.03898437 -269.47890625 257.01546875 -269.7578125 255.9609375 C-270.5671308 252.66866207 -271.29164343 249.3911454 -271.9375 246.0625 C-272.10886475 245.21349121 -272.28022949 244.36448242 -272.45678711 243.48974609 C-273.96105435 235.44148005 -274.28610526 227.61379422 -274.25 219.4375 C-274.24784485 218.76642212 -274.2456897 218.09534424 -274.24346924 217.40393066 C-273.9828273 166.28496643 -258.19501165 112.32335016 -228.9375 70.0625 C-228.57865723 69.53672363 -228.21981445 69.01094727 -227.85009766 68.46923828 C-220.48885989 57.71662777 -212.53255513 46.94077681 -202.9375 38.0625 C-202.2775 38.0625 -201.6175 38.0625 -200.9375 38.0625 C-199.9475 43.5075 -199.9475 43.5075 -198.9375 49.0625 C-198.2775 49.0625 -197.6175 49.0625 -196.9375 49.0625 C-195.67338848 50.53729678 -194.47609807 52.0696727 -193.3125 53.625 C-189.56085552 58.41204457 -185.69835762 62.29868063 -180.9375 66.0625 C-180.06480469 66.75988281 -179.19210938 67.45726562 -178.29296875 68.17578125 C-158.05094962 83.86537841 -135.23424644 94.58497588 -109.9375 99.0625 C-109.16664063 99.19930176 -108.39578125 99.33610352 -107.6015625 99.47705078 C-85.60183653 103.27645828 -65.83311774 102.30936301 -43.9375 98.0625 C-43.16921875 97.91828613 -42.4009375 97.77407227 -41.609375 97.62548828 C-14.93088958 92.45402435 19.85320325 75.57678773 35.8671875 52.45703125 C37.55848138 49.06891638 37.59598457 46.79689201 37.0625 43.0625 C35.10888578 40.43703562 35.10888578 40.43703562 32.0625 38.0625 C31.50046875 37.51335937 30.9384375 36.96421875 30.359375 36.3984375 C16.60467798 23.23941633 0.61550054 15.65565899 -17.05859375 9.13671875 C-21.38289227 7.52317453 -25.66119321 5.79856703 -29.9375 4.0625 C-26.48803718 1.76285812 -22.90915774 0.3478194 -19.0625 -1.125 C-18.35480469 -1.41052734 -17.64710938 -1.69605469 -16.91796875 -1.99023438 C-10.04084515 -4.62198279 -6.49321542 -3.41792163 0 0 Z " fill="#9CD205" transform="translate(286.9375,255.9375)"/>
<path d="M0 0 C2.16365322 -0.00961837 4.32631846 -0.04066111 6.48974609 -0.07226562 C40.85850685 -0.33579888 70.89919327 15.75706649 95.16943359 39.18164062 C115.62453962 59.53215039 132.08939118 87.7499617 132.39208984 117.22070312 C132.37899762 119.62312553 132.3554473 122.02551225 132.32177734 124.42773438 C132.31275391 125.66587891 132.30373047 126.90402344 132.29443359 128.1796875 C132.2711101 131.20007949 132.23838211 134.22004836 132.19677734 137.24023438 C131.86677734 137.24023438 131.53677734 137.24023438 131.19677734 137.24023438 C130.86677734 131.30023438 130.53677734 125.36023438 130.19677734 119.24023438 C129.84486328 120.57054688 129.49294922 121.90085937 129.13037109 123.27148438 C123.20763889 145.14426269 114.88485229 162.82750587 100.19677734 180.24023438 C99.68501953 180.87445313 99.17326172 181.50867188 98.64599609 182.16210938 C92.5677733 189.5673835 83.66455163 198.70009981 74.19677734 201.24023438 C64.1555802 201.9209935 54.90390091 199.00614715 45.50927734 195.74023438 C11.84393227 184.18816335 -20.46432595 187.78300039 -54.35791016 196.62695312 C-55.16486328 196.82933594 -55.97181641 197.03171875 -56.80322266 197.24023438 C-57.53283203 197.42585937 -58.26244141 197.61148438 -59.01416016 197.80273438 C-63.19116568 198.45795093 -67.33085033 198.50588853 -71.55322266 198.55273438 C-72.40916016 198.58173828 -73.26509766 198.61074219 -74.14697266 198.640625 C-86.35318364 198.76083768 -95.79422449 191.94292679 -104.40869141 183.76757812 C-121.33886581 165.94496042 -133.39126688 140.77475228 -135.80322266 116.24023438 C-135.89345703 115.43457031 -135.98369141 114.62890625 -136.07666016 113.79882812 C-137.23259235 89.65762895 -117.32311063 64.18399431 -102.49072266 47.24023438 C-76.21849813 18.54701988 -39.10748317 0.10463541 0 0 Z " fill="#9BD204" transform="translate(213.80322265625,4.759765625)"/>
<path d="M0 0 C0.47308594 0.36496582 0.94617188 0.72993164 1.43359375 1.10595703 C24.78719221 18.89998783 51.54209168 31.78887025 80 39 C80.93569824 39.23960449 81.87139648 39.47920898 82.83544922 39.72607422 C100.58172998 44.1817158 118.33381689 46.68576631 136.4909668 48.61450195 C138.91627639 48.88094346 141.33779407 49.18348108 143.75506592 49.51501465 C147.65755679 50.00324844 151.49195917 50.13321504 155.42797852 50.14526367 C156.12371979 50.14862228 156.81946106 50.1519809 157.5362854 50.15544128 C159.81717771 50.1648686 162.0979957 50.1668915 164.37890625 50.16796875 C165.99389168 50.17119144 167.60887684 50.17455623 169.22386169 50.17805481 C172.61042961 50.18402888 175.99697211 50.18589693 179.38354492 50.18530273 C182.80938058 50.18522207 186.23508083 50.19206848 189.66088867 50.20581055 C208.54647325 50.28047614 227.21079627 50.16283363 246 48 C247.92827353 47.79516787 249.85666196 47.59141499 251.78515625 47.38867188 C289.24062443 43.36196533 329.20138365 32.41311072 360 10 C362.64535322 8.29614257 365.32006459 6.64919102 368 5 C360.07421588 32.09705253 333.07026636 55.01857344 309.17041016 68.2265625 C307.4498474 69.15644129 305.7249629 70.0783093 304 71 C302.99710937 71.57105469 301.99421875 72.14210938 300.9609375 72.73046875 C276.10671806 86.20601949 246.85088836 91.92055218 219 95 C218.16863525 95.09571289 217.33727051 95.19142578 216.48071289 95.29003906 C157.10125729 101.48036811 87.88250963 90.60342106 40 53 C39.41621582 52.54254395 38.83243164 52.08508789 38.23095703 51.61376953 C21.50325589 38.31832794 8.30838026 21.83156093 0 2 C0 1.34 0 0.68 0 0 Z " fill="#7EC404" transform="translate(22,525)"/>
<path d="M0 0 C0.33 0 0.66 0 1 0 C1.15855469 0.95777344 1.31710938 1.91554688 1.48046875 2.90234375 C5.49716426 26.24604907 13.12642558 47.30524712 28 66 C29.01900391 67.29357422 29.01900391 67.29357422 30.05859375 68.61328125 C36.82261262 76.71105032 46.60581482 84.69620935 57.35620117 86.3659668 C59.79292654 86.49973697 62.18562445 86.50363631 64.625 86.4375 C65.49672852 86.42428711 66.36845703 86.41107422 67.26660156 86.39746094 C75.10745215 86.18181598 82.38770866 84.92541414 90 83 C91.37618315 82.65967497 92.75248909 82.31984611 94.12890625 81.98046875 C96.86805123 81.29998533 99.60447154 80.60953611 102.33984375 79.9140625 C132.90586037 72.28071363 163.1716891 75.48281254 192.37109375 86.64453125 C199.41279974 89.27474866 207.79068722 90.6984131 214.875 87.5625 C219.48140849 85.04908267 223.13425678 81.44080618 226.8984375 77.828125 C229 76 229 76 231 76 C231.24621094 75.43023437 231.49242187 74.86046875 231.74609375 74.2734375 C233.20685319 71.62495777 234.95944549 69.79852724 237.0625 67.625 C251.55937927 51.73419003 259.41752178 32.46756902 265 12 C265.66049943 9.66485267 266.33000838 7.33244747 267 5 C267.33 5 267.66 5 268 5 C269.46362024 20.34191371 268.83957299 33.33696644 264 48 C263.62617188 49.16660156 263.25234375 50.33320313 262.8671875 51.53515625 C249.84903824 88.26818581 220.5368786 117.27476012 185.88720703 134.11376953 C154.62170415 148.79601733 119.32791421 151.13634176 86.70898438 139.96166992 C51.23194618 127.09893902 23.23952396 99.2305183 7.11181641 65.48486328 C-2.04324079 45.02369241 -4.65496273 21.94482431 0 0 Z " fill="#7EC404" transform="translate(77,116)"/>
<path d="M0 0 C0.70382813 0.20898926 1.40765625 0.41797852 2.1328125 0.63330078 C35.47734917 10.75033634 61.23771591 33.13203917 77.91015625 63.4765625 C88.6495404 84.04328119 92.19386588 106.12779921 89 129 C87.47772105 126.17048972 86.51003988 123.50975064 85.73828125 120.39453125 C77.49871431 88.13502535 63.2045987 58.90134074 33.7265625 41.09765625 C24.75498212 35.91918984 15.21085777 32.18052395 5.3125 29.1875 C4.67272217 28.9925293 4.03294434 28.79755859 3.3737793 28.59667969 C-8.13301587 25.32591751 -19.71629521 24.6229019 -31.625 24.6875 C-32.67482056 24.69023422 -32.67482056 24.69023422 -33.74584961 24.69302368 C-45.03219277 24.74237009 -55.99770764 25.31998824 -67 28 C-68.02552979 28.24943359 -68.02552979 28.24943359 -69.07177734 28.50390625 C-89.33448692 33.67858734 -107.17014391 44.3995791 -122 59 C-122.72058594 59.69609375 -123.44117188 60.3921875 -124.18359375 61.109375 C-141.66873503 79.26296232 -148.63900164 105.14726304 -154 129 C-154.33 129 -154.66 129 -155 129 C-159.08082352 99.14031569 -150.86259101 69.53522266 -132.73046875 45.44921875 C-112.72459847 19.75433785 -84.34705004 1.96442986 -52.0625 -3.3125 C-34.53114045 -5.23758532 -16.93743072 -5.19345561 0 0 Z " fill="#C1EE1F" transform="translate(244,21)"/>
<path d="M0 0 C0.99 1.485 0.99 1.485 2 3 C1.05640625 3.54527344 0.1128125 4.09054688 -0.859375 4.65234375 C-10.44587054 10.25826147 -20.17497641 16.01372321 -28 24 C-26.43765625 22.85724609 -26.43765625 22.85724609 -24.84375 21.69140625 C-17.47795642 16.36074967 -10.05304868 11.19639073 -2.1875 6.625 C-1.52492187 6.22611572 -0.86234375 5.82723145 -0.1796875 5.41625977 C1.70703125 4.3515625 1.70703125 4.3515625 5 3 C7.44921875 3.7734375 7.44921875 3.7734375 9 5 C6.10324519 7.41396234 3.40212299 9.38617243 0 11 C0.58007812 10.79503906 1.16015625 10.59007812 1.7578125 10.37890625 C2.53898438 10.10949219 3.32015625 9.84007812 4.125 9.5625 C4.89070312 9.29566406 5.65640625 9.02882812 6.4453125 8.75390625 C13.10464177 6.78869134 16.65598129 7.18353532 22.875 9.9375 C23.56335938 10.22818359 24.25171875 10.51886719 24.9609375 10.81835938 C26.64630881 11.53230139 28.3239914 12.26434737 30 13 C27.60232907 15.39767093 25.76448805 15.89052134 22.5625 17 C-0.16052892 25.57756721 -22.28074799 39.76652692 -38.6328125 57.85546875 C-40 59 -40 59 -43 59 C-45.32590854 55.36576791 -45.16265833 52.22911669 -45 48 C-47.46229997 48.71745356 -47.46229997 48.71745356 -50 50 C-50.2784375 50.56203125 -50.556875 51.1240625 -50.84375 51.703125 C-52.44579865 54.885573 -54.78367003 57.34881725 -57.125 60 C-62.33243291 66.00513066 -66.76423053 72.26403423 -71 79 C-72.65 78.67 -74.3 78.34 -76 78 C-76.08636719 78.69351563 -76.17273438 79.38703125 -76.26171875 80.1015625 C-77.16289052 83.63949611 -78.86933727 86.33758044 -80.8125 89.375 C-92.0821482 107.70054801 -100.91661519 126.6926096 -108 147 C-108.33370605 147.95310059 -108.66741211 148.90620117 -109.01123047 149.88818359 C-116.12645459 170.62908011 -120.48561349 192.6847107 -122.67578125 214.4921875 C-123 217 -123 217 -124 218 C-126.43489053 259.30828674 -117.72584945 297.41588368 -89.8359375 328.953125 C-82.34433736 337.15500142 -74.12599549 344.85442866 -63.81103516 349.17651367 C-61.06099503 350.42697004 -58.59501594 352.04685564 -56.0625 353.6875 C-31.20308817 369.33325824 -3.40445286 377.83217651 25.41357422 382.56103516 C28.09126655 383.01548964 30.75470417 383.52674879 33.421875 384.0390625 C59.86008058 388.85361356 88.82351892 388.47988518 115.46875 385.4375 C119.99916513 384.93586234 124.4442131 384.92710741 129 385 C128.67 385.66 128.34 386.32 128 387 C126.33499557 387.34153937 124.66821323 387.67449498 123 388 C122.34 388.66 121.68 389.32 121 390 C122.32 390.66 123.64 391.32 125 392 C110.68552041 394.38323264 96.41628835 394.3976218 81.9375 394.375 C80.69388702 394.37478851 79.45027405 394.37457703 78.16897583 394.37435913 C59.11747712 394.34200582 40.74107015 393.60236913 22 390 C20.96343262 389.80744629 19.92686523 389.61489258 18.85888672 389.41650391 C12.18414459 388.15051336 5.58618453 386.66380172 -1 385 C-2.31653564 384.67177246 -2.31653564 384.67177246 -3.65966797 384.33691406 C-37.03764694 375.85859977 -68.55898 360.5701241 -93 336 C-93.48162598 335.52095215 -93.96325195 335.0419043 -94.45947266 334.54833984 C-109.21189122 319.71560869 -119.18464128 301.94652876 -125.3125 282 C-125.54291992 281.25468018 -125.77333984 280.50936035 -126.01074219 279.74145508 C-130.50080479 264.18612438 -131.57719235 248.98674065 -131.5 232.875 C-131.49790527 231.86865509 -131.49581055 230.86231018 -131.49365234 229.82546997 C-131.21480997 164.53439932 -104.93079182 97.43048735 -60.28515625 49.47265625 C-58.37096117 47.40139901 -56.55412389 45.29085299 -54.75 43.125 C-40.23363802 26.5971329 -21.502945 12.13603761 -2 2 C-1.34 2 -0.68 2 0 2 C0 1.34 0 0.68 0 0 Z M-33 26 C-33.33 26.66 -33.66 27.32 -34 28 C-33.01 27.67 -32.02 27.34 -31 27 C-31.66 26.67 -32.32 26.34 -33 26 Z M-51 44 C-51.99 44.99 -52.98 45.98 -54 47 C-53.67 47.66 -53.34 48.32 -53 49 C-52.01 48.01 -51.02 47.02 -50 46 C-50.33 45.34 -50.66 44.68 -51 44 Z M-60 54 C-59 56 -59 56 -59 56 Z " fill="#79AC0E" transform="translate(131,246)"/>
<path d="M0 0 C0.13277344 0.61488281 0.26554687 1.22976563 0.40234375 1.86328125 C0.66724609 3.07564453 0.66724609 3.07564453 0.9375 4.3125 C1.19853516 5.51326172 1.19853516 5.51326172 1.46484375 6.73828125 C1.99886159 9.145401 1.99886159 9.145401 3 12 C2.071875 12.86625 1.14375 13.7325 0.1875 14.625 C-5.44875435 20.27261777 -10.19594111 26.64738617 -15 33 C-15.64074463 33.84159668 -15.64074463 33.84159668 -16.29443359 34.70019531 C-27.33712638 49.30574362 -36.28995822 65.41549663 -44 82 C-44.35803711 82.76973145 -44.71607422 83.53946289 -45.08496094 84.33251953 C-60.77629855 118.51187288 -69.47395791 154.83234705 -69.125 192.4375 C-69.11494065 194.34439629 -69.10582007 196.25129778 -69.09765625 198.15820312 C-69.07589868 202.77226664 -69.04153524 207.38607389 -69 212 C-74.03583243 202.98489583 -73.35671526 191.3878611 -73.3125 181.375 C-73.31034485 180.70392212 -73.3081897 180.03284424 -73.30596924 179.34143066 C-73.0453273 128.22246643 -57.25751165 74.26085016 -28 32 C-27.46173584 31.21133545 -27.46173584 31.21133545 -26.91259766 30.40673828 C-6.0961429 0 -6.0961429 0 0 0 Z " fill="#C1EE1F" transform="translate(86,294)"/>
<path d="M0 0 C6.55068294 3.52729082 10.54471657 9.18559508 15 15 C15.42442383 15.5455957 15.84884766 16.09119141 16.28613281 16.65332031 C44.00644757 52.44071999 61.72887261 95.45832561 69 140 C69.26925293 141.5154541 69.26925293 141.5154541 69.54394531 143.06152344 C71.0661454 152.35424402 71.30790469 161.45087708 71.26074219 170.83984375 C71.2500431 173.36482918 71.26069011 175.88909878 71.2734375 178.4140625 C71.29858188 205.55212718 71.29858188 205.55212718 67 212 C67.10828125 211.10087891 67.10828125 211.10087891 67.21875 210.18359375 C71.77349029 165.71161567 61.70063926 118.91730709 42 79 C41.56316895 78.10861328 41.12633789 77.21722656 40.67626953 76.29882812 C31.39030962 57.5165158 20.42595284 36.43566346 4.828125 21.9921875 C1.78701014 19.1280441 -0.79286479 16.57864722 -3 13 C-3.03077367 8.21982294 -1.88064407 4.36703866 0 0 Z " fill="#C1EE1F" transform="translate(332,290)"/>
<path d="M0 0 C0.53625 0.391875 1.0725 0.78375 1.625 1.1875 C-1.27175481 3.60146234 -3.97287701 5.57367243 -7.375 7.1875 C-6.79492188 6.98253906 -6.21484375 6.77757812 -5.6171875 6.56640625 C-4.83601563 6.29699219 -4.05484375 6.02757812 -3.25 5.75 C-2.10144531 5.34974609 -2.10144531 5.34974609 -0.9296875 4.94140625 C5.72964177 2.97619134 9.28098129 3.37103532 15.5 6.125 C16.18835938 6.41568359 16.87671875 6.70636719 17.5859375 7.00585938 C19.27130881 7.71980139 20.9489914 8.45184737 22.625 9.1875 C20.22732907 11.58517093 18.38948805 12.07802134 15.1875 13.1875 C-7.53552892 21.76506721 -29.65574799 35.95402692 -46.0078125 54.04296875 C-47.375 55.1875 -47.375 55.1875 -50.375 55.1875 C-52.66496251 51.52355998 -53.81059574 47.49065791 -53.375 43.1875 C-51.65395475 40.25314644 -49.321851 38.14465992 -46.8125 35.875 C-46.13590332 35.23199951 -45.45930664 34.58899902 -44.76220703 33.92651367 C-38.31385815 27.89682066 -31.42844919 22.48214339 -24.375 17.1875 C-22.70328985 15.86049558 -21.0347218 14.52946837 -19.375 13.1875 C-19.97828125 13.53683594 -20.5815625 13.88617188 -21.203125 14.24609375 C-22.00234375 14.70113281 -22.8015625 15.15617187 -23.625 15.625 C-24.80835938 16.30369141 -24.80835938 16.30369141 -26.015625 16.99609375 C-28.16333468 18.08061602 -30.02705061 18.71898716 -32.375 19.1875 C-28.13806401 14.491346 -23.29799438 11.3720585 -17.9375 8.0625 C-17.10412109 7.53785156 -16.27074219 7.01320313 -15.41210938 6.47265625 C-3.26118449 -1.11566838 -3.26118449 -1.11566838 0 0 Z " fill="#8CC11C" transform="translate(138.375,249.8125)"/>
<path d="M0 0 C3.00641913 1.57885495 5.78757663 2.97760251 9.03515625 3.98046875 C12.64426592 5.2704344 15.50262094 7.18859404 18.5625 9.4375 C19.16126953 9.87231689 19.76003906 10.30713379 20.37695312 10.75512695 C24.90512605 14.09518568 29.27146647 17.61139757 33.5625 21.25 C34.12517578 21.72421387 34.68785156 22.19842773 35.26757812 22.68701172 C45.84087204 31.83940112 45.84087204 31.83940112 46.31640625 36.609375 C46.08824219 37.33640625 45.86007812 38.0634375 45.625 38.8125 C45.42003906 39.54984375 45.21507812 40.2871875 45.00390625 41.046875 C43.98949148 43.218817 42.85104135 44.48818505 41.0625 46.0625 C40.35480469 45.34191406 39.64710938 44.62132812 38.91796875 43.87890625 C22.57553561 27.57084205 4.50312931 17.08957799 -17.05859375 9.13671875 C-21.38289227 7.52317453 -25.66119321 5.79856703 -29.9375 4.0625 C-26.48803718 1.76285812 -22.90915774 0.3478194 -19.0625 -1.125 C-18.35480469 -1.41052734 -17.64710938 -1.69605469 -16.91796875 -1.99023438 C-10.04084515 -4.62198279 -6.49321542 -3.41792163 0 0 Z " fill="#8CC11B" transform="translate(286.9375,255.9375)"/>
<path d="M0 0 C3.96441739 1.43501763 7.27314167 3.34418115 10.8125 5.625 C35.74967427 21.26770293 63.52301788 29.82027491 92.41357422 34.56103516 C95.09126655 35.01548964 97.75470417 35.52674879 100.421875 36.0390625 C126.86008058 40.85361356 155.82351892 40.47988518 182.46875 37.4375 C186.99916513 36.93586234 191.4442131 36.92710741 196 37 C195.67 37.66 195.34 38.32 195 39 C193.33499557 39.34153937 191.66821323 39.67449498 190 40 C189.01 40.99 189.01 40.99 188 42 C189.32 42.66 190.64 43.32 192 44 C178.64213877 46.272467 165.37511933 46.30699804 151.85595703 46.26074219 C148.1394817 46.2500417 144.42349176 46.26067796 140.70703125 46.2734375 C127.66871783 46.2799622 114.91143724 45.87717203 102 44 C102 42.68 102 41.36 102 40 C98.535 40.495 98.535 40.495 95 41 C95 40.34 95 39.68 95 39 C94.31679687 38.92523437 93.63359375 38.85046875 92.9296875 38.7734375 C60.90567318 34.59639215 26.70863162 21.69581823 1 2 C0.67 1.34 0.34 0.68 0 0 Z " fill="#7CC104" transform="translate(64,594)"/>
<path d="M0 0 C0.99 1.485 0.99 1.485 2 3 C1.05640625 3.54527344 0.1128125 4.09054688 -0.859375 4.65234375 C-15.37404037 13.06718004 -15.37404037 13.06718004 -28 24 C-26.26909924 23.23306849 -24.54035515 22.46126869 -22.8125 21.6875 C-21.84957031 21.25824219 -20.88664062 20.82898438 -19.89453125 20.38671875 C-16.96531531 19.05251167 -16.96531531 19.05251167 -14.26171875 17.26953125 C-13.51535156 16.85058594 -12.76898438 16.43164062 -12 16 C-11.34 16.33 -10.68 16.66 -10 17 C-10.71542969 17.52207031 -11.43085937 18.04414063 -12.16796875 18.58203125 C-23.49513657 26.94918885 -34.10926035 35.75496192 -43.86303711 45.93652344 C-45.20738193 47.32540535 -46.59973099 48.66752011 -48 50 C-48.66 50 -49.32 50 -50 50 C-50.22429687 50.53625 -50.44859375 51.0725 -50.6796875 51.625 C-52.42891124 54.77153264 -54.75487656 57.31621325 -57.125 60 C-62.33243291 66.00513066 -66.76423053 72.26403423 -71 79 C-72.65 78.67 -74.3 78.34 -76 78 C-76 74.09538875 -74.66236719 73.66236719 -72 71 C-73.32 70.01 -74.64 69.02 -76 68 C-70.86080951 61.6094227 -65.63002753 55.3746056 -60.09765625 49.3203125 C-58.28292559 47.3129568 -56.54608313 45.26432391 -54.8125 43.1875 C-40.25479137 26.64464928 -21.54041584 12.15551189 -2 2 C-1.34 2 -0.68 2 0 2 C0 1.34 0 0.68 0 0 Z M-33 26 C-33.33 26.66 -33.66 27.32 -34 28 C-33.01 27.67 -32.02 27.34 -31 27 C-31.66 26.67 -32.32 26.34 -33 26 Z M-51 44 C-51.99 44.99 -52.98 45.98 -54 47 C-53.67 47.66 -53.34 48.32 -53 49 C-52.01 48.01 -51.02 47.02 -50 46 C-50.33 45.34 -50.66 44.68 -51 44 Z M-60 54 C-59 56 -59 56 -59 56 Z " fill="#79AC16" transform="translate(131,246)"/>
<path d="M0 0 C5.02171746 0.55905839 8.74923368 2.89276194 13 5.4375 C13.75112061 5.88488525 14.50224121 6.33227051 15.27612305 6.79321289 C25.93065202 13.25746605 35.24646347 20.96811397 44.24609375 29.5546875 C46.96093877 32.09210856 46.96093877 32.09210856 50.22265625 34.0703125 C53.05278406 36.03667416 53.67569967 36.96692505 55 40 C56.67398418 41.63057017 56.67398418 41.63057017 58.5625 43.0625 C61.19437653 45.12532214 61.90432539 45.71297618 63 49 C65.1118963 51.22304873 67.26038053 53.34913487 69.5625 55.375 C71.37640219 57.42549813 72.55247668 59.74278171 73.89135742 62.11767578 C75.55567723 64.94346431 77.48110751 67.57398809 79.375 70.25 C94.19173933 92.00361596 107.91019979 119.20139185 114 145 C113.67 145.99 113.34 146.98 113 148 C112.75467529 147.30777344 112.50935059 146.61554688 112.2565918 145.90234375 C99.0359728 108.8321066 82.45058311 75.48137909 56 46 C54.68588866 44.48055876 53.373114 42.95995894 52.0625 41.4375 C44.78166049 33.17654748 36.55036469 26.16703976 27.625 19.75 C26.4805542 18.92181763 26.4805542 18.92181763 25.31298828 18.0769043 C18.91046466 13.50936983 12.28800767 9.37314522 5.48681641 5.42675781 C3.62768887 4.33432798 1.80883973 3.17382153 0 2 C0 1.34 0 0.68 0 0 Z " fill="#9FD317" transform="translate(284,249)"/>
<path d="M0 0 C5.01801617 1.63652394 8.94708838 4.57806776 13.1875 7.625 C13.94200439 8.16261963 14.69650879 8.70023926 15.47387695 9.25415039 C21.13969527 13.31800613 26.62953636 17.5525848 32 22 C32.556875 22.4228125 33.11375 22.845625 33.6875 23.28125 C37.51127656 26.22874443 40.1706984 29.68514568 43.0390625 33.51171875 C45.10618049 36.134735 47.32606693 38.51580836 49.625 40.9375 C65.29245974 58.00766099 82.19006535 81.63902056 89 104 C88.01 104.99 87.02 105.98 86 107 C85.71390869 106.38705078 85.42781738 105.77410156 85.13305664 105.14257812 C73.17038848 79.5980186 60.16452596 55.13374042 40 35 C38.32801809 33.12973818 36.66162966 31.25446526 35 29.375 C26.10993253 19.57180838 16.02692548 11.75362278 5.02856445 4.43920898 C3.33822743 3.31377249 1.66694599 2.15980068 0 1 C0 0.67 0 0.34 0 0 Z " fill="#76AA04" transform="translate(295,258)"/>
<path d="M0 0 C0.66 0 1.32 0 2 0 C1.44276087 4.47454706 -0.43047754 7.65158481 -2.8125 11.375 C-14.0821482 29.70054801 -22.91661519 48.6926096 -30 69 C-30.33370605 69.95310059 -30.66741211 70.90620117 -31.01123047 71.88818359 C-38.38780129 93.39090641 -42.8733243 116.3765706 -45 139 C-45.33 139 -45.66 139 -46 139 C-46.21032469 131.33483343 -45.68403922 124.06180783 -44.4375 116.5 C-44.26041504 115.42468018 -44.08333008 114.34936035 -43.90087891 113.24145508 C-38.42306509 81.5804234 -27.64408805 51.93203663 -13.14819336 23.37475586 C-11.90960457 20.94257288 -11.90960457 20.94257288 -11 18 C-10.34 18 -9.68 18 -9 18 C-8.89558594 17.28199219 -8.79117188 16.56398438 -8.68359375 15.82421875 C-7.92824737 12.70355913 -6.74801466 10.53652247 -5.0625 7.8125 C-4.53785156 6.95269531 -4.01320312 6.09289062 -3.47265625 5.20703125 C-2 3 -2 3 0 1 C0 0.67 0 0.34 0 0 Z " fill="#93C904" transform="translate(53,324)"/>
<path d="M0 0 C0.66 0.33 1.32 0.66 2 1 C1.28457031 1.52207031 0.56914063 2.04414063 -0.16796875 2.58203125 C-13.09664291 12.1321903 -24.79921976 22.46924587 -36 34 C-36.66 33.67 -37.32 33.34 -38 33 C-37.87186721 26.84962603 -35.78588027 24.00868247 -31.69140625 19.50390625 C-30 18 -30 18 -28 18 C-28 17.34 -28 16.68 -28 16 C-26.36675689 14.94629477 -24.68756133 13.96432076 -23 13 C-21.58033684 12.02518293 -20.16395304 11.04558118 -18.75 10.0625 C-14.97968485 7.52382113 -11.20201412 5.62328423 -7.01171875 3.8828125 C-4.78481915 2.9610952 -4.78481915 2.9610952 -2.0625 1.1875 C-1.381875 0.795625 -0.70125 0.40375 0 0 Z " fill="#598C07" transform="translate(119,262)"/>
<path d="M0 0 C0.66 0.99 1.32 1.98 2 3 C1.05640625 3.54527344 0.1128125 4.09054688 -0.859375 4.65234375 C-9.35445666 9.61902433 -17.26161607 14.90211029 -25 21 C-25.95519531 21.73863281 -26.91039063 22.47726562 -27.89453125 23.23828125 C-32.96550276 27.12227412 -32.96550276 27.12227412 -37 32 C-37.99 32 -38.98 32 -40 32 C-40 32.66 -40 33.32 -40 34 C-41.67721041 35.56958193 -43.46794114 36.9480525 -45.2734375 38.3671875 C-47.14010618 40.13249861 -47.91387183 41.69540032 -49 44 C-53.34782609 48.67391304 -53.34782609 48.67391304 -56 50 C-56 49.34 -56 48.68 -56 48 C-56.66 47.67 -57.32 47.34 -58 47 C-43.23744477 28.63005345 -22.85377623 12.83808934 -2 2 C-1.34 2 -0.68 2 0 2 C0 1.34 0 0.68 0 0 Z " fill="#81B12B" transform="translate(131,246)"/>
<path d="M0 0 C18.95244072 22.61777124 32.23040882 52.52674378 41.6875 80.25 C41.9438623 80.99483643 42.20022461 81.73967285 42.46435547 82.50708008 C44.12544813 87.62365562 44.12544813 87.62365562 43 91 C42.75467529 90.30777344 42.50935059 89.61554688 42.2565918 88.90234375 C32.07476922 60.35280476 20.24874841 34.06813201 2.46948242 9.42089844 C1.8891626 8.61297852 1.30884277 7.80505859 0.7109375 6.97265625 C0.18806152 6.25343994 -0.33481445 5.53422363 -0.87353516 4.79321289 C-2 3 -2 3 -2 1 C-1.34 0.67 -0.68 0.34 0 0 Z " fill="#9AD105" transform="translate(354,306)"/>
<path d="M0 0 C6.60193597 -0.0507527 13.20382153 -0.08575576 19.8059082 -0.10986328 C22.05137004 -0.11991444 24.29681881 -0.13355744 26.54223633 -0.15087891 C29.77167997 -0.17516581 33.00095038 -0.18649207 36.23046875 -0.1953125 C37.23272995 -0.20563507 38.23499115 -0.21595764 39.2676239 -0.22659302 C40.20822159 -0.22674408 41.14881927 -0.22689514 42.11791992 -0.22705078 C42.94176682 -0.231492 43.76561371 -0.23593323 44.61442566 -0.24050903 C47.35553479 0.03584434 49.49718249 0.87587837 52 2 C52 2.33 52 2.66 52 3 C47.17629003 4.24423052 42.44415582 4.14422157 37.5 4.1328125 C36.58669922 4.13376923 35.67339844 4.13472595 34.73242188 4.13571167 C32.80598888 4.13639063 30.87955357 4.13455618 28.953125 4.13037109 C26.01036422 4.12501885 23.06775605 4.13032573 20.125 4.13671875 C18.24999966 4.13605792 16.37499942 4.13477665 14.5 4.1328125 C13.18418945 4.13584885 13.18418945 4.13584885 11.84179688 4.13894653 C7.76382149 4.12335322 3.97780227 4.0260366 0 3 C0 2.01 0 1.02 0 0 Z " fill="#79AB0C" transform="translate(186,636)"/>
<path d="M0 0 C5.72789532 0.46979583 9.61313615 2.77582971 14.375 5.75 C15.54615356 6.47340576 15.54615356 6.47340576 16.7409668 7.21142578 C26.9812836 13.69106917 36.56372559 21.29055099 45 30 C44.34 30.99 43.68 31.98 43 33 C42.42894531 32.39414062 41.85789062 31.78828125 41.26953125 31.1640625 C31.12447352 20.68029855 19.85178798 12.66641065 7.43359375 5.12890625 C4.84179383 3.5492555 2.38351526 1.88619147 0 0 Z " fill="#82B12E" transform="translate(287,247)"/>
<path d="M0 0 C0.66 0 1.32 0 2 0 C1.44290217 4.47341241 -0.42824645 7.6534264 -2.8125 11.375 C-9.15869519 21.57881582 -14.52909222 32.31034494 -20 43 C-20.95849676 40.43361844 -21.08514104 39.25208983 -20.19555664 36.61816406 C-19.77137451 35.75932617 -19.34719238 34.90048828 -18.91015625 34.015625 C-18.22856445 32.61376953 -18.22856445 32.61376953 -17.53320312 31.18359375 C-17.04787109 30.21550781 -16.56253906 29.24742187 -16.0625 28.25 C-15.58103516 27.26644531 -15.09957031 26.28289062 -14.60351562 25.26953125 C-13.41280543 22.84095402 -12.21137576 20.41831774 -11 18 C-10.34 18 -9.68 18 -9 18 C-8.89558594 17.28199219 -8.79117188 16.56398438 -8.68359375 15.82421875 C-7.92824737 12.70355913 -6.74801466 10.53652247 -5.0625 7.8125 C-4.53785156 6.95269531 -4.01320313 6.09289062 -3.47265625 5.20703125 C-2 3 -2 3 0 1 C0 0.67 0 0.34 0 0 Z " fill="#9CD306" transform="translate(53,324)"/>
<path d="M0 0 C5.01801617 1.63652394 8.94708838 4.57806776 13.1875 7.625 C13.94200439 8.16261963 14.69650879 8.70023926 15.47387695 9.25415039 C21.13888511 13.31742504 26.63858735 17.54254646 32 22 C32.60328125 22.48082031 33.2065625 22.96164062 33.828125 23.45703125 C36.64717374 25.72184954 39.12836913 27.88061522 41 31 C41 31.99 41 32.98 41 34 C37.67563779 32.89187926 37.07314668 32.14463373 34.9375 29.5 C27.39966994 20.70067358 18.57699161 14.07066865 9.15698242 7.42895508 C8.40521729 6.89810303 7.65345215 6.36725098 6.87890625 5.8203125 C6.2041626 5.34867676 5.52941895 4.87704102 4.83422852 4.39111328 C3.05855747 3.04441108 1.53310152 1.61375974 0 0 Z " fill="#568A03" transform="translate(295,258)"/>
<path d="M0 0 C8.85898937 0.53411786 17.34520917 2.14289913 26 4 C26 4.33 26 4.66 26 5 C17.84482006 8.15086498 9.41652847 6.6365472 1 5 C1.33 4.01 1.66 3.02 2 2 C1.34 1.34 0.68 0.68 0 0 Z " fill="#77AB0D" transform="translate(226,0)"/>
<path d="M0 0 C0.66 1.32 1.32 2.64 2 4 C0.76238177 5.65516419 -0.49057455 7.29886798 -1.75 8.9375 C-2.44609375 9.85402344 -3.1421875 10.77054687 -3.859375 11.71484375 C-6.13607478 14.14526231 -6.90654682 14.34073949 -10 15 C-11.54264802 16.6062744 -11.54264802 16.6062744 -12.75 18.5625 C-13.17796875 19.20316406 -13.6059375 19.84382813 -14.046875 20.50390625 C-14.36140625 20.99761719 -14.6759375 21.49132812 -15 22 C-15.99 21.67 -16.98 21.34 -18 21 C-16.9712294 17.91368819 -16.27612312 17.14321083 -14 15 C-13.0948989 13.94538367 -12.19944788 12.88242853 -11.3125 11.8125 C-7.77362798 7.64073148 -3.91030652 3.82098479 0 0 Z " fill="#7CB103" transform="translate(80,292)"/>
<path d="M0 0 C5.2208955 0.52935521 9.15952438 3.17071463 13.5625 5.8125 C14.31724609 6.25142578 15.07199219 6.69035156 15.84960938 7.14257812 C19.69817788 9.42459275 23.014558 11.6027729 26 15 C25.01 15.495 25.01 15.495 24 16 C24 15.34 24 14.68 24 14 C23.01 14.33 22.02 14.66 21 15 C18.73168945 13.9519043 18.73168945 13.9519043 16.11328125 12.32421875 C14.7065918 11.45313477 14.7065918 11.45313477 13.27148438 10.56445312 C11.80678711 9.63536133 11.80678711 9.63536133 10.3125 8.6875 C9.32443359 8.07970703 8.33636719 7.47191406 7.31835938 6.84570312 C1.9190322 3.46600005 1.9190322 3.46600005 0 2 C0 1.34 0 0.68 0 0 Z " fill="#A3D61C" transform="translate(284,249)"/>
<path d="M0 0 C0 0.99 0 1.98 0 3 C-0.99 3.66 -1.98 4.32 -3 5 C-1.35 5 0.3 5 2 5 C-0.36595933 7.61500768 -2.86049226 9.38999603 -6 11 C-6.66 10.67 -7.32 10.34 -8 10 C-11.2858799 11.0952933 -14.12076405 12.61642752 -17.16015625 14.2578125 C-17.76730469 14.50273437 -18.37445313 14.74765625 -19 15 C-19.66 14.67 -20.32 14.34 -21 14 C-18.81550594 12.4123788 -16.62758405 10.82987826 -14.4375 9.25 C-13.52387695 8.58484375 -13.52387695 8.58484375 -12.59179688 7.90625 C-8.52579798 4.98045185 -4.38820279 2.41718249 0 0 Z " fill="#9FD317" transform="translate(127,254)"/>
<path d="M0 0 C-0.66 0.66 -1.32 1.32 -2 2 C-0.68 2.66 0.64 3.32 2 4 C-0.52019972 4.33885038 -3.04098516 4.67120335 -5.5625 5 C-6.26697266 5.09539063 -6.97144531 5.19078125 -7.69726562 5.2890625 C-12.17367855 5.86666417 -16.48661238 6.09489383 -21 6 C-19.68 5.34 -18.36 4.68 -17 4 C-18.32 3.34 -19.64 2.68 -21 2 C-13.94546999 0.79556805 -7.16562789 -0.28100502 0 0 Z " fill="#85B324" transform="translate(254,634)"/>
<path d="M0 0 C0.87785156 0.10828125 1.75570312 0.2165625 2.66015625 0.328125 C3.53542969 0.44671875 4.41070312 0.5653125 5.3125 0.6875 C6.85409844 0.87556016 8.39575779 1.06312216 9.9375 1.25 C11.05125 1.394375 12.165 1.53875 13.3125 1.6875 C13.3125 2.3475 13.3125 3.0075 13.3125 3.6875 C16.7775 3.1925 16.7775 3.1925 20.3125 2.6875 C20.3125 3.6775 20.3125 4.6675 20.3125 5.6875 C10.71808492 5.21829589 1.6708379 3.74555771 -7.6875 1.6875 C-4.3308669 -0.5502554 -3.79510428 -0.49449553 0 0 Z " fill="#82B123" transform="translate(145.6875,631.3125)"/>
<path d="M0 0 C0.86044922 0.54720703 0.86044922 0.54720703 1.73828125 1.10546875 C-1.45840863 3.75415465 -4.65658472 6.04539216 -8.26171875 8.10546875 C-7.93171875 8.76546875 -7.60171875 9.42546875 -7.26171875 10.10546875 C-9.90171875 10.10546875 -12.54171875 10.10546875 -15.26171875 10.10546875 C-14.62234375 9.50734375 -13.98296875 8.90921875 -13.32421875 8.29296875 C-11.05861486 6.19736538 -11.05861486 6.19736538 -10.26171875 3.10546875 C-8.5546875 1.8671875 -8.5546875 1.8671875 -6.44921875 0.79296875 C-5.76214844 0.42558594 -5.07507813 0.05820313 -4.3671875 -0.3203125 C-2.26171875 -0.89453125 -2.26171875 -0.89453125 0 0 Z " fill="#8FC504" transform="translate(138.26171875,249.89453125)"/>
<path d="M0 0 C4.07376031 1.61010527 6.76507069 4.53822271 9.75 7.625 C10.25660156 8.140625 10.76320313 8.65625 11.28515625 9.1875 C12.52803902 10.45383339 13.76465276 11.7263144 15 13 C14.34 13.66 13.68 14.32 13 15 C9.19029195 13.45339834 6.97630811 11.09618599 4.25 8.0625 C3.45078125 7.18722656 2.6515625 6.31195313 1.828125 5.41015625 C0 3 0 3 0 0 Z " fill="#82B12A" transform="translate(331,277)"/>
<path d="M0 0 C6.12568229 0.38657218 10.34562867 3.34995898 15.375 6.5625 C16.20644531 7.08263672 17.03789062 7.60277344 17.89453125 8.13867188 C19.93536363 9.41712434 21.97007581 10.70432403 24 12 C23.01 12.66 22.02 13.32 21 14 C20.40574219 13.56429688 19.81148438 13.12859375 19.19921875 12.6796875 C13.04262163 8.25612939 6.72625358 4.49100233 0 1 C0 0.67 0 0.34 0 0 Z " fill="#91BA46" transform="translate(287,247)"/>
<path d="M0 0 C1.46015291 0.28241641 2.91809793 0.57626614 4.375 0.875 C5.18710938 1.03742187 5.99921875 1.19984375 6.8359375 1.3671875 C9 2 9 2 11 4 C8 6 8 6 5.66015625 5.828125 C4.80292969 5.63734375 3.94570312 5.4465625 3.0625 5.25 C2.20785156 5.06953125 1.35320312 4.8890625 0.47265625 4.703125 C-1.88110869 4.03380796 -3.85901587 3.17232542 -6 2 C-4.02 2 -2.04 2 0 2 C0 1.34 0 0.68 0 0 Z " fill="#7DAE17" transform="translate(121,624)"/>
<path d="M0 0 C0.66 0.99 1.32 1.98 2 3 C-8 9 -8 9 -18 15 C-18.66 14.34 -19.32 13.68 -20 13 C-17.60688647 11.53704003 -15.21071914 10.0795478 -12.8125 8.625 C-11.80219727 8.00625 -11.80219727 8.00625 -10.77148438 7.375 C-7.26248684 5.25248442 -3.88612647 3.37334955 0 2 C0 1.34 0 0.68 0 0 Z " fill="#90BA46" transform="translate(131,246)"/>
<path d="M0 0 C1.875 0.25 1.875 0.25 4 1 C4.2990625 1.6084375 4.598125 2.216875 4.90625 2.84375 C6.15289284 5.30141732 7.49998538 6.51850661 9.625 8.25 C10.25664062 8.77078125 10.88828125 9.2915625 11.5390625 9.828125 C12.02117187 10.21484375 12.50328125 10.6015625 13 11 C12.67 11.66 12.34 12.32 12 13 C6.51525288 11.67036433 3.09378428 7.50248145 0 3 C0 2.01 0 1.02 0 0 Z " fill="#A4D526" transform="translate(333,284)"/>
<path d="M0 0 C0.66 0 1.32 0 2 0 C0.24933204 3.88609811 -2.18324006 7.27812258 -4.625 10.75 C-5.04523438 11.35199219 -5.46546875 11.95398438 -5.8984375 12.57421875 C-6.92993137 14.05113043 -7.96464579 15.52579194 -9 17 C-9.84653438 13.9409326 -10.24513185 12.00906864 -9 9 C-8.01 8.67 -7.02 8.34 -6 8 C-4.40557347 6.13704948 -4.40557347 6.13704948 -2.9375 3.9375 C-1.40234375 1.71484375 -1.40234375 1.71484375 0 0 Z " fill="#77AC03" transform="translate(71,305)"/>
<path d="M0 0 C0.99 0.33 1.98 0.66 3 1 C2.01 4.3 1.02 7.6 0 11 C-1.65 10.67 -3.3 10.34 -5 10 C-5 7 -5 7 -3 5 C-0.91764985 2.7465544 -0.91764985 2.7465544 0 0 Z " fill="#98CA1F" transform="translate(60,314)"/>
<path d="M0 0 C0.74609375 1.671875 0.74609375 1.671875 1 4 C-0.65234375 6.578125 -0.65234375 6.578125 -2.9375 9.25 C-4.06478516 10.58804687 -4.06478516 10.58804687 -5.21484375 11.953125 C-5.80394531 12.62859375 -6.39304687 13.3040625 -7 14 C-7.99 13.67 -8.98 13.34 -10 13 C-8.96560238 9.89680715 -8.28756997 9.15653971 -6 7 C-4.92659726 5.78034287 -3.8640772 4.55102426 -2.8125 3.3125 C-2.28269531 2.68988281 -1.75289062 2.06726563 -1.20703125 1.42578125 C-0.80871094 0.95527344 -0.41039063 0.48476563 0 0 Z " fill="#A2D421" transform="translate(72,300)"/>
<path d="M0 0 C-0.47202486 4.24822374 -2.96655518 6.19989709 -6 9 C-6.99 8.01 -7.98 7.02 -9 6 C-8.07213211 4.99105628 -7.13231567 3.99309093 -6.1875 3 C-5.66542969 2.443125 -5.14335938 1.88625 -4.60546875 1.3125 C-3 0 -3 0 0 0 Z " fill="#7EAF1F" transform="translate(75,294)"/>
<path d="M0 0 C5.15245057 1.41692391 9.82701421 3.64368446 14 7 C14.33 7.99 14.66 8.98 15 10 C12.21788056 9.62403791 10.4120716 9.32681541 8.1875 7.5625 C7 6 7 6 7 4 C6.030625 3.71125 5.06125 3.4225 4.0625 3.125 C1 2 1 2 0 0 Z " fill="#6FA504" transform="translate(281,250)"/>
<path d="M0 0 C0.99 0.33 1.98 0.66 3 1 C-0.80411834 4.91939465 -4.81576108 8.49102731 -9 12 C-7.88081459 6.77713475 -5.6539919 4.36488719 -1.75390625 1.00390625 C-1.17511719 0.67261719 -0.59632812 0.34132813 0 0 Z " fill="#78AB0F" transform="translate(91,275)"/>
<path d="M0 0 C2.97 0 5.94 0 9 0 C8.67 0.99 8.34 1.98 8 3 C8.99 3.33 9.98 3.66 11 4 C7.37 4 3.74 4 0 4 C0 2.66666667 0 1.33333333 0 0 Z " fill="#79AD0E" transform="translate(251,633)"/>
<path d="M0 0 C0.99 0 1.98 0 3 0 C2.71640113 1.4391134 2.42278601 2.87625518 2.125 4.3125 C1.96257812 5.11300781 1.80015625 5.91351562 1.6328125 6.73828125 C1 9 1 9 -1 12 C-1 10.35 -1 8.7 -1 7 C-1.66 7 -2.32 7 -3 7 C-3 6.34 -3 5.68 -3 5 C-2.34 5 -1.68 5 -1 5 C-0.67 3.35 -0.34 1.7 0 0 Z " fill="#81B11E" transform="translate(407,519)"/>
<path d="M0 0 C-2.69728168 3.33193619 -6.02060187 4.60371996 -10 6 C-12.22265625 5.578125 -12.22265625 5.578125 -14 5 C-12.23628182 3.96692229 -10.46374967 2.94887951 -8.6875 1.9375 C-7.70136719 1.36902344 -6.71523437 0.80054688 -5.69921875 0.21484375 C-3 -1 -3 -1 0 0 Z " fill="#558A03" transform="translate(143,252)"/>
<path d="M0 0 C3.63 0.33 7.26 0.66 11 1 C10.67 1.66 10.34 2.32 10 3 C6.7 3 3.4 3 0 3 C0 2.01 0 1.02 0 0 Z " fill="#71A703" transform="translate(186,636)"/>
<path d="M0 0 C0 0.99 0 1.98 0 3 C1.65 3 3.3 3 5 3 C5 3.33 5 3.66 5 4 C-0.28 3.67 -5.56 3.34 -11 3 C-11 2.67 -11 2.34 -11 2 C-7.12315913 0.80712589 -4.08378077 0 0 0 Z " fill="#9BC14A" transform="translate(186,636)"/>
<path d="M0 0 C1.09570312 0.19464844 2.19140625 0.38929688 3.3203125 0.58984375 C4.16335937 0.74582031 5.00640625 0.90179687 5.875 1.0625 C5.545 1.7225 5.215 2.3825 4.875 3.0625 C0.585 2.7325 -3.705 2.4025 -8.125 2.0625 C-8.125 1.4025 -8.125 0.7425 -8.125 0.0625 C-5.2144446 -1.3927777 -3.16650948 -0.57266661 0 0 Z " fill="#75A905" transform="translate(146.125,629.9375)"/>
<path d="M0 0 C1.4800841 0.11362262 2.95910074 0.24122908 4.4375 0.375 C5.26121094 0.44460938 6.08492187 0.51421875 6.93359375 0.5859375 C7.95646484 0.79089844 7.95646484 0.79089844 9 1 C9.33 1.66 9.66 2.32 10 3 C6.37 3 2.74 3 -1 3 C-0.67 2.01 -0.34 1.02 0 0 Z " fill="#70A603" transform="translate(228,636)"/>
<path d="M0 0 C0.33 0 0.66 0 1 0 C1 8.58 1 17.16 1 26 C0.67 26 0.34 26 0 26 C0 17.42 0 8.84 0 0 Z " fill="#FDFEFB" transform="translate(355,122)"/>
<path d="M0 0 C3.63 0.33 7.26 0.66 11 1 C9.02 1.99 9.02 1.99 7 3 C6.67 3.66 6.34 4.32 6 5 C4.35 5 2.7 5 1 5 C1.33 4.01 1.66 3.02 2 2 C1.34 1.34 0.68 0.68 0 0 Z " fill="#91BA38" transform="translate(226,0)"/>
<path d="M0 0 C0.66 0 1.32 0 2 0 C2 1.65 2 3.3 2 5 C0.02 5.99 0.02 5.99 -2 7 C-1.125 1.125 -1.125 1.125 0 0 Z M-3 7 C-2.34 8.32 -1.68 9.64 -1 11 C-1.99 11 -2.98 11 -4 11 C-3.67 9.68 -3.34 8.36 -3 7 Z " fill="#73A804" transform="translate(404,526)"/>
<path d="M0 0 C0.66 0 1.32 0 2 0 C1.58578031 4.83256305 -0.46413986 6.82679218 -4 10 C-4 5.91591468 -2.8670615 3.8670615 0 1 C0 0.67 0 0.34 0 0 Z " fill="#A7D62C" transform="translate(53,324)"/>
<path d="M0 0 C3.36720387 1.39332574 4.9859524 2.9789286 7 6 C6.34 6.66 5.68 7.32 5 8 C2.5 5.6875 2.5 5.6875 0 3 C0 2.01 0 1.02 0 0 Z " fill="#78AB19" transform="translate(331,277)"/>
<path d="M0 0 C0.66 0.33 1.32 0.66 2 1 C1.21654285 2.17219543 0.42297164 3.33763668 -0.375 4.5 C-0.81585938 5.1496875 -1.25671875 5.799375 -1.7109375 6.46875 C-2.13632812 6.9740625 -2.56171875 7.479375 -3 8 C-3.66 8 -4.32 8 -5 8 C-3.375 2.25 -3.375 2.25 0 0 Z " fill="#9FD11A" transform="translate(49,333)"/>
<path d="M0 0 C0.33 0 0.66 0 1 0 C1 7.59 1 15.18 1 23 C0.67 23 0.34 23 0 23 C0 15.41 0 7.82 0 0 Z " fill="#FDFEFA" transform="translate(66,122)"/>
<path d="M0 0 C0 0.33 0 0.66 0 1 C-3.3 1.66 -6.6 2.32 -10 3 C-10.33 2.01 -10.66 1.02 -11 0 C-6.94952424 -1.35015859 -4.2079832 -0.62084998 0 0 Z " fill="#81B01F" transform="translate(252,4)"/>
<path d="M0 0 C0.66 0 1.32 0 2 0 C1.39009109 3.55780196 0.4216319 6.6828589 -1 10 C-2.10717914 6.67846257 -1.9099978 4.36699184 -1 1 C-0.67 0.67 -0.34 0.34 0 0 Z " fill="#86B428" transform="translate(404,531)"/>
<path d="M0 0 C0 0.99 0 1.98 0 3 C-0.474375 3.45375 -0.94875 3.9075 -1.4375 4.375 C-3.44583349 6.46366683 -3.61869524 8.1783448 -4 11 C-4.33 10.34 -4.66 9.68 -5 9 C-5.66 8.67 -6.32 8.34 -7 8 C-4.69 5.36 -2.38 2.72 0 0 Z " fill="#91BB44" transform="translate(80,285)"/>
<path d="M0 0 C2.97 0.495 2.97 0.495 6 1 C6 1.99 6 2.98 6 4 C4.02 4 2.04 4 0 4 C0 2.68 0 1.36 0 0 Z " fill="#74A804" transform="translate(115,622)"/>
<path d="M0 0 C0.99 0 1.98 0 3 0 C3 1.65 3 3.3 3 5 C0.03 4.505 0.03 4.505 -3 4 C-3 3.34 -3 2.68 -3 2 C-2.01 2 -1.02 2 0 2 C0 1.34 0 0.68 0 0 Z " fill="#81B020" transform="translate(112,621)"/>
<path d="M0 0 C3.82946843 1.45255699 5.12050295 3.42895561 7 7 C6.01 7 5.02 7 4 7 C0 2.65714286 0 2.65714286 0 0 Z " fill="#99D104" transform="translate(342,295)"/>
<path d="M0 0 C0.33 0.99 0.66 1.98 1 3 C-0.65 4.65 -2.3 6.3 -4 8 C-4.99 7.67 -5.98 7.34 -7 7 C-4.69 4.69 -2.38 2.38 0 0 Z " fill="#A0D419" transform="translate(80,292)"/>
<path d="M0 0 C2.625 1.4375 2.625 1.4375 5 3 C4.34 4.32 3.68 5.64 3 7 C1.35 5.02 -0.3 3.04 -2 1 C-1.34 0.67 -0.68 0.34 0 0 Z " fill="#94BD49" transform="translate(327,273)"/>
<path d="M0 0 C1.32 0.66 2.64 1.32 4 2 C2.68 3.32 1.36 4.64 0 6 C-0.66 5.67 -1.32 5.34 -2 5 C-1.125 1.125 -1.125 1.125 0 0 Z " fill="#70A606" transform="translate(55,315)"/>
<path d="M0 0 C0.66 0.66 1.32 1.32 2 2 C-1.96 3.98 -1.96 3.98 -6 6 C-6.66 5.34 -7.32 4.68 -8 4 C-5.36 2.68 -2.72 1.36 0 0 Z " fill="#A2D61D" transform="translate(136,249)"/>
<path d="M0 0 C-3.08888522 2.05925681 -3.70935927 2.2390374 -7.1875 2.125 C-9.0746875 2.063125 -9.0746875 2.063125 -11 2 C-11 1.67 -11 1.34 -11 1 C-6.87831311 -0.62950412 -4.29299643 -1.26264601 0 0 Z " fill="#88B526" transform="translate(177,636)"/>
<path d="M0 0 C1.65 0.33 3.3 0.66 5 1 C3.9375 2.5625 3.9375 2.5625 2 4 C-1.6875 3.6875 -1.6875 3.6875 -5 3 C-5 2.67 -5 2.34 -5 2 C-3.35 1.67 -1.7 1.34 0 1 C0 0.67 0 0.34 0 0 Z " fill="#83B121" transform="translate(127,626)"/>
<path d="M0 0 C0.99 0.33 1.98 0.66 3 1 C3 1.99 3 2.98 3 4 C2.01 4 1.02 4 0 4 C-0.33 4.66 -0.66 5.32 -1 6 C-0.67 4.02 -0.34 2.04 0 0 Z " fill="#71A604" transform="translate(407,515)"/>
<path d="M0 0 C-0.33 2.31 -0.66 4.62 -1 7 C-2.32 5.68 -3.64 4.36 -5 3 C-2.25 0 -2.25 0 0 0 Z " fill="#81B01F" transform="translate(412,511)"/>
<path d="M0 0 C0.6875 1.8125 0.6875 1.8125 1 4 C-0.1875 5.8125 -0.1875 5.8125 -2 7 C-4.1875 6.6875 -4.1875 6.6875 -6 6 C-5.195625 5.38125 -4.39125 4.7625 -3.5625 4.125 C-0.96125481 2.25835959 -0.96125481 2.25835959 0 0 Z " fill="#ACDA37" transform="translate(72,300)"/>
<path d="M0 0 C0.66 1.32 1.32 2.64 2 4 C-0.64 4 -3.28 4 -6 4 C-2.25 0 -2.25 0 0 0 Z " fill="#83B806" transform="translate(129,256)"/>
<path d="M0 0 C0.33 0 0.66 0 1 0 C1 2.97 1 5.94 1 9 C0.67 9 0.34 9 0 9 C0 6.03 0 3.06 0 0 Z " fill="#FDFEFB" transform="translate(67,146)"/>
<path d="M0 0 C0.33 0 0.66 0 1 0 C1 2.97 1 5.94 1 9 C0.67 9 0.34 9 0 9 C0 6.03 0 3.06 0 0 Z " fill="#FDFEFB" transform="translate(67,112)"/>
<path d="M0 0 C2.64 0 5.28 0 8 0 C8 0.33 8 0.66 8 1 C5.36 1 2.72 1 0 1 C0 0.67 0 0.34 0 0 Z " fill="#FDFEFC" transform="translate(250,639)"/>
<path d="M0 0 C2.64 0 5.28 0 8 0 C8 0.33 8 0.66 8 1 C5.36 1 2.72 1 0 1 C0 0.67 0 0.34 0 0 Z " fill="#FDFEFC" transform="translate(165,639)"/>
<path d="M0 0 C0.33 0 0.66 0 1 0 C1 2.64 1 5.28 1 8 C0.67 8 0.34 8 0 8 C0 5.36 0 2.72 0 0 Z " fill="#FDFEFB" transform="translate(354,149)"/>
<path d="M0 0 C0.33 0 0.66 0 1 0 C1 2.64 1 5.28 1 8 C0.67 8 0.34 8 0 8 C0 5.36 0 2.72 0 0 Z " fill="#FDFEFB" transform="translate(354,114)"/>
<path d="M0 0 C2.31 0 4.62 0 7 0 C7 0.33 7 0.66 7 1 C4.69 1 2.38 1 0 1 C0 0.67 0 0.34 0 0 Z " fill="#FDFEFC" transform="translate(158,638)"/>
<path d="M0 0 C0.33 0 0.66 0 1 0 C1 2.31 1 4.62 1 7 C0.67 7 0.34 7 0 7 C0 4.69 0 2.38 0 0 Z " fill="#FDFEFC" transform="translate(0,439)"/>
<path d="M0 0 C0.33 0 0.66 0 1 0 C1 2.31 1 4.62 1 7 C0.67 7 0.34 7 0 7 C0 4.69 0 2.38 0 0 Z " fill="#FDFEFC" transform="translate(415,434)"/>
<path d="M0 0 C0.33 0 0.66 0 1 0 C1 2.31 1 4.62 1 7 C0.67 7 0.34 7 0 7 C0 4.69 0 2.38 0 0 Z " fill="#FDFEFC" transform="translate(353,107)"/>
<path d="M0 0 C1.98 0 3.96 0 6 0 C6 0.33 6 0.66 6 1 C4.02 1 2.04 1 0 1 C0 0.67 0 0.34 0 0 Z " fill="#FDFEFB" transform="translate(258,638)"/>
<path d="M0 0 C1.98 0 3.96 0 6 0 C6 0.33 6 0.66 6 1 C4.02 1 2.04 1 0 1 C0 0.67 0 0.34 0 0 Z " fill="#FDFEFB" transform="translate(152,637)"/>
<path d="M0 0 C0.33 0 0.66 0 1 0 C1 1.98 1 3.96 1 6 C0.67 6 0.34 6 0 6 C0 4.02 0 2.04 0 0 Z " fill="#FDFEFC" transform="translate(415,500)"/>
<path d="M0 0 C0.33 0 0.66 0 1 0 C1 1.98 1 3.96 1 6 C0.67 6 0.34 6 0 6 C0 4.02 0 2.04 0 0 Z " fill="#FDFEFB" transform="translate(414,428)"/>
<path d="M0 0 C0.33 0 0.66 0 1 0 C1 1.98 1 3.96 1 6 C0.67 6 0.34 6 0 6 C0 4.02 0 2.04 0 0 Z " fill="#FDFEFC" transform="translate(353,157)"/>
<path d="M0 0 C0.33 0 0.66 0 1 0 C1 1.98 1 3.96 1 6 C0.67 6 0.34 6 0 6 C0 4.02 0 2.04 0 0 Z " fill="#FDFEFC" transform="translate(68,155)"/>
<path d="M0 0 C0.33 0 0.66 0 1 0 C1 1.98 1 3.96 1 6 C0.67 6 0.34 6 0 6 C0 4.02 0 2.04 0 0 Z " fill="#FDFEFC" transform="translate(68,106)"/>
<path d="M0 0 C1.98 0 3.96 0 6 0 C6 0.33 6 0.66 6 1 C4.02 1 2.04 1 0 1 C0 0.67 0 0.34 0 0 Z " fill="#FDFEFC" transform="translate(179,0)"/>
<path d="M0 0 C1.65 0 3.3 0 5 0 C5 0.33 5 0.66 5 1 C3.35 1 1.7 1 0 1 C0 0.67 0 0.34 0 0 Z " fill="#FDFEFB" transform="translate(264,637)"/>
<path d="M0 0 C1.65 0 3.3 0 5 0 C5 0.33 5 0.66 5 1 C3.35 1 1.7 1 0 1 C0 0.67 0 0.34 0 0 Z " fill="#FDFEFB" transform="translate(147,636)"/>
<path d="M0 0 C0.33 0 0.66 0 1 0 C1 1.65 1 3.3 1 5 C0.67 5 0.34 5 0 5 C0 3.35 0 1.7 0 0 Z " fill="#FDFEFB" transform="translate(1,514)"/>
<path d="M0 0 C0.33 0 0.66 0 1 0 C1 1.65 1 3.3 1 5 C0.67 5 0.34 5 0 5 C0 3.35 0 1.7 0 0 Z " fill="#FDFEFC" transform="translate(0,509)"/>
<path d="M0 0 C0.33 0 0.66 0 1 0 C1 1.65 1 3.3 1 5 C0.67 5 0.34 5 0 5 C0 3.35 0 1.7 0 0 Z " fill="#FDFEFC" transform="translate(414,506)"/>
<path d="M0 0 C0.33 0 0.66 0 1 0 C1 1.65 1 3.3 1 5 C0.67 5 0.34 5 0 5 C0 3.35 0 1.7 0 0 Z " fill="#FDFEFB" transform="translate(1,434)"/>
<path d="M0 0 C0.33 0 0.66 0 1 0 C1 1.65 1 3.3 1 5 C0.67 5 0.34 5 0 5 C0 3.35 0 1.7 0 0 Z " fill="#FDFEFB" transform="translate(2,428)"/>
<path d="M0 0 C0.33 0 0.66 0 1 0 C1 1.65 1 3.3 1 5 C0.67 5 0.34 5 0 5 C0 3.35 0 1.7 0 0 Z " fill="#FDFEFB" transform="translate(413,423)"/>
<path d="M0 0 C0.33 0 0.66 0 1 0 C1 1.65 1 3.3 1 5 C0.67 5 0.34 5 0 5 C0 3.35 0 1.7 0 0 Z " fill="#FDFEFB" transform="translate(3,423)"/>
<path d="M0 0 C0.33 0 0.66 0 1 0 C1 1.65 1 3.3 1 5 C0.67 5 0.34 5 0 5 C0 3.35 0 1.7 0 0 Z " fill="#FDFEFB" transform="translate(412,418)"/>
<path d="M0 0 C0.33 0 0.66 0 1 0 C1 1.65 1 3.3 1 5 C0.67 5 0.34 5 0 5 C0 3.35 0 1.7 0 0 Z " fill="#FDFEFC" transform="translate(69,161)"/>
<path d="M0 0 C0.33 0 0.66 0 1 0 C1 1.65 1 3.3 1 5 C0.67 5 0.34 5 0 5 C0 3.35 0 1.7 0 0 Z " fill="#FDFEFC" transform="translate(69,101)"/>
<path d="M0 0 C1.65 0 3.3 0 5 0 C5 0.33 5 0.66 5 1 C3.35 1 1.7 1 0 1 C0 0.67 0 0.34 0 0 Z " fill="#FDFEFC" transform="translate(244,1)"/>
<path d="M0 0 C1.65 0 3.3 0 5 0 C5 0.33 5 0.66 5 1 C3.35 1 1.7 1 0 1 C0 0.67 0 0.34 0 0 Z " fill="#FDFEFC" transform="translate(239,0)"/>
<path d="M0 0 C4 1 4 1 4 1 Z " fill="#FDFEFB" transform="translate(270,636)"/>
<path d="M0 0 C4 1 4 1 4 1 Z " fill="#FDFEFB" transform="translate(275,635)"/>
<path d="M0 0 C4 1 4 1 4 1 Z " fill="#FDFEFB" transform="translate(142,635)"/>
<path d="M0 0 C4 1 4 1 4 1 Z " fill="#FDFEFC" transform="translate(279,634)"/>
<path d="M0 0 C4 1 4 1 4 1 Z " fill="#FDFEFB" transform="translate(137,634)"/>
<path d="M0 0 C4 1 4 1 4 1 Z " fill="#FDFEFC" transform="translate(283,633)"/>
<path d="M0 0 C4 1 4 1 4 1 Z " fill="#FDFEFB" transform="translate(133,633)"/>
<path d="M0 0 C4 1 4 1 4 1 Z " fill="#FDFEFC" transform="translate(287,632)"/>
<path d="M0 0 C4 1 4 1 4 1 Z " fill="#FDFEFC" transform="translate(129,632)"/>
<path d="M0 0 C4 1 4 1 4 1 Z " fill="#FDFEFC" transform="translate(125,631)"/>
<path d="M0 0 C1 4 1 4 1 4 Z " fill="#FDFEFC" transform="translate(3,523)"/>
<path d="M0 0 C1 4 1 4 1 4 Z " fill="#FDFEFB" transform="translate(2,519)"/>
<path d="M0 0 C1 4 1 4 1 4 Z " fill="#FDFEFB" transform="translate(413,511)"/>
<path d="M0 0 C1 4 1 4 1 4 Z " fill="#FDFEFB" transform="translate(4,419)"/>
<path d="M0 0 C1 4 1 4 1 4 Z " fill="#FDFEFB" transform="translate(5,415)"/>
<path d="M0 0 C1 4 1 4 1 4 Z " fill="#FDFEFB" transform="translate(411,414)"/>
<path d="M0 0 C1 4 1 4 1 4 Z " fill="#FDFEFC" transform="translate(6,411)"/>
<path d="M0 0 C1 4 1 4 1 4 Z " fill="#FDFEFC" transform="translate(410,410)"/>
<path d="M0 0 C1 4 1 4 1 4 Z " fill="#FDFEFB" transform="translate(409,406)"/>
<path d="M0 0 C1 4 1 4 1 4 Z " fill="#FDFEFC" transform="translate(8,404)"/>
<path d="M0 0 C1 4 1 4 1 4 Z " fill="#FDFEFC" transform="translate(408,402)"/>
<path d="M0 0 C1 4 1 4 1 4 Z " fill="#FDFEFC" transform="translate(406,395)"/>
<path d="M0 0 C0 3 0 3 0 3 Z " fill="#FEFEFD" transform="translate(52,315)"/>
<path d="M0 0 C0.66 0 1.32 0 2 0 C2 0.66 2 1.32 2 2 C1.34 2 0.68 2 0 2 C0 1.34 0 0.68 0 0 Z " fill="#FEFEFD" transform="translate(127,246)"/>
<path d="M0 0 C0 3 0 3 0 3 Z " fill="#FEFEFD" transform="translate(333,208)"/>
<path d="M0 0 C1 4 1 4 1 4 Z " fill="#FDFEFC" transform="translate(350,171)"/>
<path d="M0 0 C1 4 1 4 1 4 Z " fill="#FDFEFC" transform="translate(351,167)"/>
<path d="M0 0 C1 4 1 4 1 4 Z " fill="#FDFEFC" transform="translate(70,166)"/>
<path d="M0 0 C1 4 1 4 1 4 Z " fill="#FDFEFC" transform="translate(352,163)"/>
<path d="M0 0 C1 4 1 4 1 4 Z " fill="#FDFEFB" transform="translate(352,103)"/>
<path d="M0 0 C1 4 1 4 1 4 Z " fill="#FDFEFB" transform="translate(351,98)"/>
<path d="M0 0 C1 4 1 4 1 4 Z " fill="#FDFEFC" transform="translate(70,97)"/>
<path d="M0 0 C1 4 1 4 1 4 Z " fill="#FDFEFC" transform="translate(350,94)"/>
<path d="M0 0 C4 1 4 1 4 1 Z " fill="#FDFEFC" transform="translate(253,3)"/>
<path d="M0 0 C4 1 4 1 4 1 Z " fill="#FDFEFC" transform="translate(249,2)"/>
<path d="M0 0 C4 1 4 1 4 1 Z " fill="#FDFEFB" transform="translate(175,1)"/>
<path d="M0 0 C3 1 3 1 3 1 Z " fill="#FDFEFB" transform="translate(291,631)"/>
<path d="M0 0 C3 1 3 1 3 1 Z " fill="#FDFEFC" transform="translate(294,630)"/>
<path d="M0 0 C3 1 3 1 3 1 Z " fill="#FDFEFC" transform="translate(122,630)"/>
<path d="M0 0 C3 1 3 1 3 1 Z " fill="#FDFEFB" transform="translate(118,629)"/>
<path d="M0 0 C3 1 3 1 3 1 Z " fill="#FDFEFC" transform="translate(115,628)"/>
<path d="M0 0 C3 1 3 1 3 1 Z " fill="#FDFEFC" transform="translate(112,627)"/>
<path d="M0 0 C3 1 3 1 3 1 Z " fill="#FDFEFC" transform="translate(109,626)"/>
<path d="M0 0 C3 1 3 1 3 1 Z " fill="#FEFEFC" transform="translate(106,625)"/>
<path d="M0 0 C3 1 3 1 3 1 Z " fill="#FDFEFD" transform="translate(103,624)"/>
<path d="M0 0 C3 1 3 1 3 1 Z " fill="#FEFEFC" transform="translate(98,622)"/>
<path d="M0 0 C3 1 3 1 3 1 Z " fill="#FEFEFC" transform="translate(93,620)"/>
<path d="" fill="#FEFEFC" transform="translate(0,0)"/>
<path d="" fill="#FEFEFD" transform="translate(0,0)"/>
<path d="" fill="#FEFEFC" transform="translate(0,0)"/>
<path d="" fill="#FDFEFC" transform="translate(0,0)"/>
<path d="" fill="#FEFEFC" transform="translate(0,0)"/>
<path d="" fill="#FDFEFB" transform="translate(0,0)"/>
<path d="" fill="#FDFEFC" transform="translate(0,0)"/>
<path d="" fill="#FDFEFB" transform="translate(0,0)"/>
<path d="" fill="#FDFEFB" transform="translate(0,0)"/>
<path d="" fill="#FDFEFA" transform="translate(0,0)"/>
<path d="" fill="#FDFEFB" transform="translate(0,0)"/>
<path d="" fill="#FDFEFB" transform="translate(0,0)"/>
<path d="" fill="#FDFEFB" transform="translate(0,0)"/>
<path d="" fill="#FDFEFC" transform="translate(0,0)"/>
<path d="" fill="#FDFEFC" transform="translate(0,0)"/>
<path d="" fill="#FDFEFB" transform="translate(0,0)"/>
<path d="" fill="#FDFEFC" transform="translate(0,0)"/>
<path d="" fill="#FDFEFC" transform="translate(0,0)"/>
<path d="" fill="#FDFEFC" transform="translate(0,0)"/>
<path d="" fill="#FDFEFC" transform="translate(0,0)"/>
<path d="" fill="#FEFEFC" transform="translate(0,0)"/>
<path d="" fill="#FEFEFC" transform="translate(0,0)"/>
<path d="" fill="#FEFEFC" transform="translate(0,0)"/>
<path d="" fill="#FEFEFC" transform="translate(0,0)"/>
<path d="" fill="#FEFEFC" transform="translate(0,0)"/>
<path d="" fill="#FEFEFD" transform="translate(0,0)"/>
<path d="" fill="#FEFEFD" transform="translate(0,0)"/>
<path d="" fill="#FEFEFC" transform="translate(0,0)"/>
<path d="" fill="#FDFEFC" transform="translate(0,0)"/>
<path d="" fill="#FEFEFC" transform="translate(0,0)"/>
<path d="" fill="#FDFEFB" transform="translate(0,0)"/>
<path d="" fill="#FDFEFC" transform="translate(0,0)"/>
<path d="" fill="#FDFEFB" transform="translate(0,0)"/>
<path d="" fill="#FDFEFB" transform="translate(0,0)"/>
<path d="" fill="#FDFEFB" transform="translate(0,0)"/>
<path d="" fill="#FDFEFC" transform="translate(0,0)"/>
<path d="" fill="#FEFEFC" transform="translate(0,0)"/>
<path d="" fill="#FEFEFC" transform="translate(0,0)"/>
<path d="" fill="#FEFEFC" transform="translate(0,0)"/>
<path d="M0 0 C3 1 3 1 3 1 Z " fill="#FEFEFD" transform="translate(271,9)"/>
<path d="M0 0 C3 1 3 1 3 1 Z " fill="#FDFEFD" transform="translate(149,9)"/>
<path d="M0 0 C3 1 3 1 3 1 Z " fill="#FDFEFC" transform="translate(266,7)"/>
<path d="M0 0 C3 1 3 1 3 1 Z " fill="#FDFEFD" transform="translate(154,7)"/>
<path d="M0 0 C3 1 3 1 3 1 Z " fill="#FEFEFC" transform="translate(263,6)"/>
<path d="M0 0 C3 1 3 1 3 1 Z " fill="#FDFEFC" transform="translate(157,6)"/>
<path d="M0 0 C3 1 3 1 3 1 Z " fill="#FDFEFC" transform="translate(260,5)"/>
<path d="M0 0 C3 1 3 1 3 1 Z " fill="#FDFEFC" transform="translate(160,5)"/>
<path d="M0 0 C3 1 3 1 3 1 Z " fill="#FDFEFC" transform="translate(257,4)"/>
<path d="M0 0 C3 1 3 1 3 1 Z " fill="#FDFEFB" transform="translate(163,4)"/>
<path d="M0 0 C3 1 3 1 3 1 Z " fill="#FCFEFB" transform="translate(167,3)"/>
<path d="M0 0 C3 1 3 1 3 1 Z " fill="#FCFEFB" transform="translate(171,2)"/>
<path d="M0 0 C2 1 2 1 2 1 Z " fill="#FDFEFB" transform="translate(298,629)"/>
<path d="M0 0 C2 1 2 1 2 1 Z " fill="#FDFEFB" transform="translate(301,628)"/>
<path d="M0 0 C2 1 2 1 2 1 Z " fill="#FDFEFB" transform="translate(304,627)"/>
<path d="M0 0 C2 1 2 1 2 1 Z " fill="#FDFEFB" transform="translate(307,626)"/>
<path d="M0 0 C2 1 2 1 2 1 Z " fill="#FDFEFD" transform="translate(309,625)"/>
<path d="M0 0 C2 1 2 1 2 1 Z " fill="#FCFEFB" transform="translate(312,624)"/>
<path d="M0 0 C2 1 2 1 2 1 Z " fill="#FEFEFD" transform="translate(314,623)"/>
<path d="M0 0 C2 1 2 1 2 1 Z " fill="#FCFEFB" transform="translate(101,623)"/>
<path d="M0 0 C2 1 2 1 2 1 Z " fill="#FDFEFC" transform="translate(317,622)"/>
<path d="M0 0 C2 1 2 1 2 1 Z " fill="#FCFEFC" transform="translate(319,621)"/>
<path d="M0 0 C2 1 2 1 2 1 Z " fill="#FDFEFD" transform="translate(96,621)"/>
<path d="M0 0 C2 1 2 1 2 1 Z " fill="#FDFEFD" transform="translate(321,620)"/>
<path d="M0 0 C2 1 2 1 2 1 Z " fill="#FCFEFC" transform="translate(91,619)"/>
<path d="M0 0 C2 1 2 1 2 1 Z " fill="#FDFEFD" transform="translate(89,618)"/>
<path d="M0 0 C2 1 2 1 2 1 Z " fill="#FDFEFD" transform="translate(87,617)"/>
<path d="M0 0 C2 1 2 1 2 1 Z " fill="#FDFEFD" transform="translate(335,613)"/>
<path d="M0 0 C2 1 2 1 2 1 Z " fill="#FEFEFD" transform="translate(337,612)"/>
<path d="M0 0 C2 1 2 1 2 1 Z " fill="#FEFEFD" transform="translate(75,611)"/>
<path d="M0 0 C2 1 2 1 2 1 Z " fill="#FEFEFD" transform="translate(73,610)"/>
<path d="M0 0 C2 1 2 1 2 1 Z " fill="#FEFEFE" transform="translate(342,609)"/>
<path d="M0 0 C2 1 2 1 2 1 Z " fill="#FEFEFE" transform="translate(345,607)"/>
<path d="M0 0 C2 1 2 1 2 1 Z " fill="#FEFEFD" transform="translate(68,607)"/>
<path d="M0 0 C2 1 2 1 2 1 Z " fill="#FEFEFE" transform="translate(66,606)"/>
<path d="M0 0 C2 1 2 1 2 1 Z " fill="#FEFEFE" transform="translate(348,605)"/>
<path d="M0 0 C2 1 2 1 2 1 Z " fill="#FEFEFE" transform="translate(63,604)"/>
<path d="M0 0 C2 1 2 1 2 1 Z " fill="#FEFEFE" transform="translate(60,602)"/>
<path d="M0 0 C2 1 2 1 2 1 Z " fill="#FEFEFE" transform="translate(53,597)"/>
<path d="M0 0 C2 1 2 1 2 1 Z " fill="#FEFEFE" transform="translate(48,593)"/>
<path d="" fill="#FEFFFE" transform="translate(0,0)"/>
<path d="" fill="#FEFFFE" transform="translate(0,0)"/>
<path d="" fill="#FEFEFE" transform="translate(0,0)"/>
<path d="" fill="#FEFEFE" transform="translate(0,0)"/>
<path d="" fill="#FEFFFE" transform="translate(0,0)"/>
<path d="" fill="#FEFFFE" transform="translate(0,0)"/>
<path d="" fill="#FEFFFE" transform="translate(0,0)"/>
<path d="" fill="#FEFFFD" transform="translate(0,0)"/>
<path d="" fill="#FEFEFD" transform="translate(0,0)"/>
<path d="" fill="#FEFEFD" transform="translate(0,0)"/>
<path d="" fill="#FEFEFD" transform="translate(0,0)"/>
<path d="" fill="#FEFFFD" transform="translate(0,0)"/>
<path d="" fill="#FEFEFD" transform="translate(0,0)"/>
<path d="" fill="#FEFEFD" transform="translate(0,0)"/>
<path d="" fill="#FEFEFC" transform="translate(0,0)"/>
<path d="" fill="#FEFEFC" transform="translate(0,0)"/>
<path d="" fill="#FEFEFC" transform="translate(0,0)"/>
<path d="" fill="#FDFEFC" transform="translate(0,0)"/>
<path d="" fill="#FDFEFC" transform="translate(0,0)"/>
<path d="" fill="#FDFEFC" transform="translate(0,0)"/>
<path d="" fill="#FDFEFC" transform="translate(0,0)"/>
<path d="" fill="#FCFEFB" transform="translate(0,0)"/>
<path d="" fill="#FCFEFA" transform="translate(0,0)"/>
<path d="" fill="#FDFEFB" transform="translate(0,0)"/>
<path d="" fill="#FDFEFB" transform="translate(0,0)"/>
<path d="" fill="#FEFEFB" transform="translate(0,0)"/>
<path d="" fill="#FCFEFA" transform="translate(0,0)"/>
<path d="" fill="#FDFEFB" transform="translate(0,0)"/>
<path d="" fill="#FDFEFB" transform="translate(0,0)"/>
<path d="" fill="#FCFEFC" transform="translate(0,0)"/>
<path d="" fill="#FDFEFC" transform="translate(0,0)"/>
<path d="" fill="#FDFEFC" transform="translate(0,0)"/>
<path d="" fill="#FDFEFC" transform="translate(0,0)"/>
<path d="" fill="#FEFEFC" transform="translate(0,0)"/>
<path d="" fill="#FEFEFC" transform="translate(0,0)"/>
<path d="" fill="#FEFEFC" transform="translate(0,0)"/>
<path d="" fill="#FEFEFC" transform="translate(0,0)"/>
<path d="" fill="#FDFEFC" transform="translate(0,0)"/>
<path d="" fill="#FDFEFC" transform="translate(0,0)"/>
<path d="" fill="#FEFEFC" transform="translate(0,0)"/>
<path d="" fill="#FDFEFD" transform="translate(0,0)"/>
<path d="" fill="#FEFEFC" transform="translate(0,0)"/>
<path d="" fill="#FCFEFC" transform="translate(0,0)"/>
<path d="" fill="#FEFEFC" transform="translate(0,0)"/>
<path d="" fill="#FEFEFD" transform="translate(0,0)"/>
<path d="" fill="#FEFFFD" transform="translate(0,0)"/>
<path d="" fill="#FDFEFC" transform="translate(0,0)"/>
<path d="" fill="#FDFEFC" transform="translate(0,0)"/>
<path d="" fill="#FDFEFD" transform="translate(0,0)"/>
<path d="" fill="#FDFEFD" transform="translate(0,0)"/>
<path d="" fill="#FDFEFD" transform="translate(0,0)"/>
<path d="" fill="#FEFEFC" transform="translate(0,0)"/>
<path d="" fill="#FEFEFD" transform="translate(0,0)"/>
<path d="" fill="#FEFFFD" transform="translate(0,0)"/>
<path d="" fill="#FEFEFD" transform="translate(0,0)"/>
<path d="" fill="#FEFEFC" transform="translate(0,0)"/>
<path d="" fill="#FEFFFD" transform="translate(0,0)"/>
<path d="" fill="#FEFEFD" transform="translate(0,0)"/>
<path d="" fill="#FEFEFD" transform="translate(0,0)"/>
<path d="" fill="#FEFFFE" transform="translate(0,0)"/>
<path d="" fill="#FEFFFD" transform="translate(0,0)"/>
<path d="" fill="#FEFFFE" transform="translate(0,0)"/>
<path d="" fill="#FEFEFD" transform="translate(0,0)"/>
<path d="" fill="#FEFEFD" transform="translate(0,0)"/>
<path d="" fill="#FEFFFD" transform="translate(0,0)"/>
<path d="" fill="#FEFFFE" transform="translate(0,0)"/>
<path d="" fill="#FEFFFD" transform="translate(0,0)"/>
<path d="" fill="#FEFFFE" transform="translate(0,0)"/>
<path d="" fill="#FEFFFD" transform="translate(0,0)"/>
<path d="" fill="#FEFFFE" transform="translate(0,0)"/>
<path d="" fill="#FEFEFE" transform="translate(0,0)"/>
<path d="" fill="#FEFFFE" transform="translate(0,0)"/>
<path d="" fill="#FEFEFE" transform="translate(0,0)"/>
<path d="" fill="#FEFEFD" transform="translate(0,0)"/>
<path d="" fill="#FEFEFE" transform="translate(0,0)"/>
<path d="" fill="#FEFFFE" transform="translate(0,0)"/>
<path d="" fill="#FEFFFE" transform="translate(0,0)"/>
<path d="" fill="#FEFFFE" transform="translate(0,0)"/>
<path d="M0 0 C2 1 2 1 2 1 Z " fill="#FEFEFE" transform="translate(312,259)"/>
<path d="M0 0 C2 1 2 1 2 1 Z " fill="#FEFEFE" transform="translate(117,253)"/>
<path d="M0 0 C2 1 2 1 2 1 Z " fill="#FEFEFE" transform="translate(300,251)"/>
<path d="M0 0 C2 1 2 1 2 1 Z " fill="#FEFEFE" transform="translate(120,251)"/>
<path d="M0 0 C2 1 2 1 2 1 Z " fill="#FDFEFD" transform="translate(122,250)"/>
<path d="M0 0 C2 1 2 1 2 1 Z " fill="#FDFEFD" transform="translate(295,248)"/>
<path d="M0 0 C2 1 2 1 2 1 Z " fill="#FEFEFE" transform="translate(293,245)"/>
<path d="M0 0 C2 1 2 1 2 1 Z " fill="#FEFEFD" transform="translate(125,245)"/>
<path d="M0 0 C2 1 2 1 2 1 Z " fill="#FEFEFE" transform="translate(302,239)"/>
<path d="" fill="#FEFEFD" transform="translate(0,0)"/>
<path d="" fill="#FEFEFE" transform="translate(0,0)"/>
<path d="" fill="#FEFEFE" transform="translate(0,0)"/>
<path d="" fill="#FEFEFD" transform="translate(0,0)"/>
<path d="" fill="#FEFEFE" transform="translate(0,0)"/>
<path d="" fill="#FEFEFE" transform="translate(0,0)"/>
<path d="" fill="#FEFEFD" transform="translate(0,0)"/>
<path d="" fill="#FEFEFC" transform="translate(0,0)"/>
<path d="" fill="#FEFEFD" transform="translate(0,0)"/>
<path d="" fill="#FDFEFC" transform="translate(0,0)"/>
<path d="" fill="#FEFEFD" transform="translate(0,0)"/>
<path d="" fill="#FDFEFC" transform="translate(0,0)"/>
<path d="" fill="#FDFEFD" transform="translate(0,0)"/>
<path d="" fill="#FEFEFC" transform="translate(0,0)"/>
<path d="" fill="#FDFEFD" transform="translate(0,0)"/>
<path d="" fill="#FDFEFD" transform="translate(0,0)"/>
<path d="" fill="#FDFEFD" transform="translate(0,0)"/>
<path d="" fill="#FDFEFC" transform="translate(0,0)"/>
<path d="" fill="#FEFEFC" transform="translate(0,0)"/>
<path d="" fill="#FEFEFC" transform="translate(0,0)"/>
<path d="" fill="#FDFEFC" transform="translate(0,0)"/>
<path d="" fill="#FDFEFB" transform="translate(0,0)"/>
<path d="" fill="#FCFEFB" transform="translate(0,0)"/>
<path d="" fill="#FDFEFB" transform="translate(0,0)"/>
<path d="" fill="#FEFEFC" transform="translate(0,0)"/>
<path d="" fill="#FCFEFB" transform="translate(0,0)"/>
<path d="" fill="#FDFEFC" transform="translate(0,0)"/>
<path d="" fill="#FEFEFC" transform="translate(0,0)"/>
<path d="" fill="#FEFEFC" transform="translate(0,0)"/>
<path d="" fill="#FDFEFC" transform="translate(0,0)"/>
<path d="" fill="#FEFEFD" transform="translate(0,0)"/>
<path d="" fill="#FCFEFC" transform="translate(0,0)"/>
<path d="" fill="#FDFEFC" transform="translate(0,0)"/>
<path d="" fill="#FEFEFD" transform="translate(0,0)"/>
<path d="" fill="#FDFEFD" transform="translate(0,0)"/>
<path d="" fill="#FDFEFC" transform="translate(0,0)"/>
<path d="" fill="#FDFEFD" transform="translate(0,0)"/>
<path d="" fill="#FEFEFD" transform="translate(0,0)"/>
<path d="" fill="#FEFEFB" transform="translate(0,0)"/>
<path d="" fill="#FEFEFD" transform="translate(0,0)"/>
<path d="" fill="#FEFEFD" transform="translate(0,0)"/>
<path d="" fill="#FEFEFD" transform="translate(0,0)"/>
<path d="" fill="#FEFEFD" transform="translate(0,0)"/>
<path d="" fill="#FEFEFD" transform="translate(0,0)"/>
<path d="" fill="#FEFEFD" transform="translate(0,0)"/>
<path d="" fill="#FEFEFD" transform="translate(0,0)"/>
<path d="" fill="#FEFEFE" transform="translate(0,0)"/>
<path d="" fill="#FEFEFE" transform="translate(0,0)"/>
<path d="" fill="#FEFEFD" transform="translate(0,0)"/>
<path d="" fill="#FEFEFD" transform="translate(0,0)"/>
<path d="M0 0 C2 1 2 1 2 1 Z " fill="#FEFEFE" transform="translate(116,28)"/>
<path d="M0 0 C2 1 2 1 2 1 Z " fill="#FEFEFE" transform="translate(302,26)"/>
<path d="M0 0 C2 1 2 1 2 1 Z " fill="#FEFEFE" transform="translate(120,25)"/>
<path d="M0 0 C2 1 2 1 2 1 Z " fill="#FEFEFE" transform="translate(123,23)"/>
<path d="M0 0 C2 1 2 1 2 1 Z " fill="#FEFEFE" transform="translate(126,21)"/>
<path d="M0 0 C2 1 2 1 2 1 Z " fill="#FEFEFD" transform="translate(293,20)"/>
<path d="M0 0 C2 1 2 1 2 1 Z " fill="#FEFEFD" transform="translate(290,18)"/>
<path d="M0 0 C2 1 2 1 2 1 Z " fill="#FEFEFE" transform="translate(131,18)"/>
<path d="M0 0 C2 1 2 1 2 1 Z " fill="#FDFEFD" transform="translate(288,17)"/>
<path d="M0 0 C2 1 2 1 2 1 Z " fill="#FEFEFD" transform="translate(133,17)"/>
<path d="M0 0 C2 1 2 1 2 1 Z " fill="#FEFEFC" transform="translate(143,12)"/>
<path d="M0 0 C2 1 2 1 2 1 Z " fill="#FDFEFC" transform="translate(276,11)"/>
<path d="M0 0 C2 1 2 1 2 1 Z " fill="#FDFEFD" transform="translate(145,11)"/>
<path d="M0 0 C2 1 2 1 2 1 Z " fill="#FDFEFC" transform="translate(274,10)"/>
<path d="M0 0 C2 1 2 1 2 1 Z " fill="#FDFEFB" transform="translate(147,10)"/>
<path d="M0 0 C2 1 2 1 2 1 Z " fill="#FDFEFD" transform="translate(269,8)"/>
<path d="M0 0 C2 1 2 1 2 1 Z " fill="#FDFEFB" transform="translate(152,8)"/>
<path d="" fill="#FDFEFA" transform="translate(0,0)"/>
<path d="" fill="#FDFEFA" transform="translate(0,0)"/>
<path d="" fill="#FDFEFA" transform="translate(0,0)"/>
<path d="" fill="#FDFEFA" transform="translate(0,0)"/>
<path d="" fill="#FDFEFA" transform="translate(0,0)"/>
<path d="" fill="#FDFEFA" transform="translate(0,0)"/>
<path d="" fill="#FDFEFA" transform="translate(0,0)"/>
<path d="" fill="#FDFEFC" transform="translate(0,0)"/>
<path d="" fill="#FDFEFA" transform="translate(0,0)"/>
<path d="" fill="#FDFEFA" transform="translate(0,0)"/>
<path d="" fill="#FDFEFA" transform="translate(0,0)"/>
<path d="" fill="#FDFEFD" transform="translate(0,0)"/>
<path d="" fill="#FDFEFC" transform="translate(0,0)"/>
<path d="" fill="#FEFFFE" transform="translate(0,0)"/>
<path d="" fill="#FDFEFB" transform="translate(0,0)"/>
<path d="" fill="#FDFEFB" transform="translate(0,0)"/>
<path d="" fill="#FDFEFC" transform="translate(0,0)"/>
<path d="" fill="#FDFEFD" transform="translate(0,0)"/>
<path d="" fill="#FDFEFC" transform="translate(0,0)"/>
<path d="" fill="#FFFFFF" transform="translate(0,0)"/>
<path d="" fill="#FDFEFC" transform="translate(0,0)"/>
<path d="" fill="#FDFEFB" transform="translate(0,0)"/>
<path d="" fill="#FEFFFE" transform="translate(0,0)"/>
<path d="" fill="#FDFEFC" transform="translate(0,0)"/>
<path d="" fill="#FEFEFD" transform="translate(0,0)"/>
<path d="" fill="#FFFFFF" transform="translate(0,0)"/>
<path d="" fill="#FDFEFC" transform="translate(0,0)"/>
<path d="" fill="#FDFEFB" transform="translate(0,0)"/>
<path d="" fill="#FDFFFC" transform="translate(0,0)"/>
<path d="" fill="#FEFFFD" transform="translate(0,0)"/>
<path d="" fill="#FFFFFF" transform="translate(0,0)"/>
<path d="" fill="#FDFEFD" transform="translate(0,0)"/>
<path d="" fill="#FDFEFC" transform="translate(0,0)"/>
<path d="" fill="#FDFEFC" transform="translate(0,0)"/>
<path d="" fill="#FDFFFC" transform="translate(0,0)"/>
<path d="" fill="#FFFFFE" transform="translate(0,0)"/>
<path d="" fill="#FFFFFF" transform="translate(0,0)"/>
<path d="" fill="#FDFEFD" transform="translate(0,0)"/>
<path d="" fill="#FFFFFF" transform="translate(0,0)"/>
<path d="" fill="#FDFEFD" transform="translate(0,0)"/>
<path d="" fill="#FFFFFF" transform="translate(0,0)"/>
<path d="" fill="#FDFEFC" transform="translate(0,0)"/>
<path d="" fill="#FEFEFD" transform="translate(0,0)"/>
<path d="" fill="#FFFFFE" transform="translate(0,0)"/>
<path d="" fill="#FFFEFE" transform="translate(0,0)"/>
<path d="" fill="#FDFEFD" transform="translate(0,0)"/>
<path d="" fill="#FDFEFB" transform="translate(0,0)"/>
<path d="" fill="#FFFFFF" transform="translate(0,0)"/>
<path d="" fill="#FDFEFC" transform="translate(0,0)"/>
<path d="" fill="#FFFFFF" transform="translate(0,0)"/>
<path d="" fill="#FDFEFB" transform="translate(0,0)"/>
<path d="" fill="#FFFFFF" transform="translate(0,0)"/>
<path d="" fill="#FDFEFB" transform="translate(0,0)"/>
<path d="" fill="#FEFEFD" transform="translate(0,0)"/>
<path d="" fill="#FDFEFD" transform="translate(0,0)"/>
<path d="" fill="#FEFFFF" transform="translate(0,0)"/>
<path d="" fill="#FDFEFD" transform="translate(0,0)"/>
<path d="" fill="#FEFEFD" transform="translate(0,0)"/>
<path d="" fill="#FDFEFD" transform="translate(0,0)"/>
<path d="" fill="#FEFFFD" transform="translate(0,0)"/>
<path d="" fill="#FFFEFE" transform="translate(0,0)"/>
<path d="" fill="#FEFEFD" transform="translate(0,0)"/>
<path d="" fill="#FFFFFF" transform="translate(0,0)"/>
<path d="" fill="#FFFFFF" transform="translate(0,0)"/>
<path d="" fill="#FEFFFF" transform="translate(0,0)"/>
<path d="" fill="#FEFFFF" transform="translate(0,0)"/>
<path d="" fill="#FDFEFD" transform="translate(0,0)"/>
<path d="" fill="#FFFFFE" transform="translate(0,0)"/>
<path d="" fill="#FEFFFD" transform="translate(0,0)"/>
<path d="" fill="#FEFFFD" transform="translate(0,0)"/>
<path d="" fill="#FDFEFD" transform="translate(0,0)"/>
<path d="" fill="#FDFEFB" transform="translate(0,0)"/>
<path d="" fill="#FFFFFF" transform="translate(0,0)"/>
<path d="" fill="#FFFFFF" transform="translate(0,0)"/>
<path d="" fill="#FEFFFD" transform="translate(0,0)"/>
<path d="" fill="#FDFFFC" transform="translate(0,0)"/>
<path d="" fill="#FDFEFB" transform="translate(0,0)"/>
<path d="" fill="#FDFEFD" transform="translate(0,0)"/>
<path d="" fill="#FDFEFC" transform="translate(0,0)"/>
<path d="" fill="#FDFFFB" transform="translate(0,0)"/>
<path d="" fill="#FDFEFC" transform="translate(0,0)"/>
<path d="" fill="#FEFFFC" transform="translate(0,0)"/>
<path d="" fill="#FDFEFC" transform="translate(0,0)"/>
<path d="" fill="#FEFFFC" transform="translate(0,0)"/>
<path d="" fill="#FEFFFC" transform="translate(0,0)"/>
<path d="" fill="#FDFEFD" transform="translate(0,0)"/>
<path d="" fill="#FDFEFD" transform="translate(0,0)"/>
<path d="" fill="#FEFFFC" transform="translate(0,0)"/>
<path d="" fill="#FDFEFB" transform="translate(0,0)"/>
<path d="" fill="#FDFEFA" transform="translate(0,0)"/>
<path d="" fill="#FDFEFB" transform="translate(0,0)"/>
<path d="" fill="#FDFEFB" transform="translate(0,0)"/>
<path d="" fill="#FDFEFB" transform="translate(0,0)"/>
<path d="" fill="#FDFEFA" transform="translate(0,0)"/>
<path d="" fill="#FDFEFA" transform="translate(0,0)"/>
<path d="" fill="#FDFEFD" transform="translate(0,0)"/>
<path d="" fill="#FDFEFD" transform="translate(0,0)"/>
<path d="" fill="#FDFEFD" transform="translate(0,0)"/>
<path d="" fill="#FDFEFD" transform="translate(0,0)"/>
<path d="" fill="#FDFEFA" transform="translate(0,0)"/>
<path d="" fill="#FDFEFB" transform="translate(0,0)"/>
<path d="" fill="#FDFEFD" transform="translate(0,0)"/>
<path d="" fill="#FDFEFC" transform="translate(0,0)"/>
<path d="" fill="#FEFFFD" transform="translate(0,0)"/>
<path d="" fill="#FDFEFB" transform="translate(0,0)"/>
<path d="" fill="#FDFEFC" transform="translate(0,0)"/>
<path d="" fill="#FDFEFB" transform="translate(0,0)"/>
<path d="" fill="#FDFEFB" transform="translate(0,0)"/>
<path d="" fill="#FDFEFC" transform="translate(0,0)"/>
<path d="" fill="#FEFFFD" transform="translate(0,0)"/>
<path d="" fill="#FDFEFD" transform="translate(0,0)"/>
<path d="" fill="#FEFFFD" transform="translate(0,0)"/>
<path d="" fill="#FDFEFC" transform="translate(0,0)"/>
<path d="" fill="#FDFEFC" transform="translate(0,0)"/>
<path d="" fill="#FDFEFC" transform="translate(0,0)"/>
<path d="" fill="#FDFEFB" transform="translate(0,0)"/>
<path d="" fill="#FDFEFC" transform="translate(0,0)"/>
<path d="" fill="#FDFFFE" transform="translate(0,0)"/>
<path d="" fill="#FEFFFD" transform="translate(0,0)"/>
<path d="" fill="#FFFFFF" transform="translate(0,0)"/>
<path d="" fill="#FDFEFC" transform="translate(0,0)"/>
<path d="" fill="#FDFEFD" transform="translate(0,0)"/>
<path d="" fill="#FFFFFF" transform="translate(0,0)"/>
<path d="" fill="#FDFEFB" transform="translate(0,0)"/>
<path d="" fill="#FDFFFB" transform="translate(0,0)"/>
<path d="" fill="#FFFFFF" transform="translate(0,0)"/>
<path d="" fill="#FDFEFD" transform="translate(0,0)"/>
<path d="" fill="#FDFFFE" transform="translate(0,0)"/>
<path d="" fill="#FFFFFE" transform="translate(0,0)"/>
<path d="" fill="#FDFEFD" transform="translate(0,0)"/>
<path d="" fill="#FFFFFE" transform="translate(0,0)"/>
<path d="" fill="#FDFEFD" transform="translate(0,0)"/>
<path d="" fill="#FDFEFC" transform="translate(0,0)"/>
<path d="" fill="#FFFEFE" transform="translate(0,0)"/>
<path d="" fill="#FFFFFE" transform="translate(0,0)"/>
<path d="" fill="#FCFEFA" transform="translate(0,0)"/>
<path d="" fill="#FEFFFF" transform="translate(0,0)"/>
<path d="" fill="#FDFFFE" transform="translate(0,0)"/>
<path d="" fill="#FFFFFE" transform="translate(0,0)"/>
<path d="" fill="#FEFEFB" transform="translate(0,0)"/>
<path d="" fill="#FEFEFE" transform="translate(0,0)"/>
<path d="" fill="#FEFEFD" transform="translate(0,0)"/>
<path d="" fill="#FDFEFD" transform="translate(0,0)"/>
<path d="" fill="#FFFEFE" transform="translate(0,0)"/>
<path d="" fill="#FDFEFC" transform="translate(0,0)"/>
<path d="" fill="#FDFEFC" transform="translate(0,0)"/>
<path d="" fill="#FEFEFC" transform="translate(0,0)"/>
<path d="" fill="#FDFEFC" transform="translate(0,0)"/>
<path d="" fill="#FFFFFF" transform="translate(0,0)"/>
<path d="" fill="#FFFFFF" transform="translate(0,0)"/>
<path d="" fill="#FDFFFD" transform="translate(0,0)"/>
<path d="" fill="#FDFFFD" transform="translate(0,0)"/>
<path d="" fill="#FDFFFD" transform="translate(0,0)"/>
<path d="" fill="#FDFEFD" transform="translate(0,0)"/>
<path d="" fill="#FDFEFD" transform="translate(0,0)"/>
<path d="" fill="#FFFFFF" transform="translate(0,0)"/>
<path d="" fill="#FDFEFD" transform="translate(0,0)"/>
<path d="" fill="#FFFFFF" transform="translate(0,0)"/>
<path d="" fill="#FDFEFD" transform="translate(0,0)"/>
<path d="" fill="#FFFFFF" transform="translate(0,0)"/>
<path d="" fill="#FDFEFD" transform="translate(0,0)"/>
<path d="" fill="#FFFFFF" transform="translate(0,0)"/>
<path d="" fill="#FDFEFD" transform="translate(0,0)"/>
<path d="" fill="#FFFFFF" transform="translate(0,0)"/>
<path d="" fill="#FDFEFD" transform="translate(0,0)"/>
<path d="" fill="#FFFFFF" transform="translate(0,0)"/>
<path d="" fill="#FDFEFD" transform="translate(0,0)"/>
<path d="" fill="#FFFFFF" transform="translate(0,0)"/>
<path d="" fill="#FDFEFD" transform="translate(0,0)"/>
<path d="" fill="#FFFFFF" transform="translate(0,0)"/>
<path d="" fill="#FFFFFE" transform="translate(0,0)"/>
<path d="" fill="#FFFFFF" transform="translate(0,0)"/>
<path d="" fill="#FEFEFC" transform="translate(0,0)"/>
<path d="" fill="#FDFEFB" transform="translate(0,0)"/>
<path d="" fill="#FDFEFC" transform="translate(0,0)"/>
<path d="" fill="#FDFEFD" transform="translate(0,0)"/>
<path d="" fill="#FFFEFD" transform="translate(0,0)"/>
<path d="" fill="#FFFFFE" transform="translate(0,0)"/>
<path d="" fill="#FDFEFC" transform="translate(0,0)"/>
<path d="" fill="#FEFFFD" transform="translate(0,0)"/>
<path d="" fill="#FEFEFD" transform="translate(0,0)"/>
<path d="" fill="#FCFDFA" transform="translate(0,0)"/>
<path d="" fill="#FFFFFF" transform="translate(0,0)"/>
<path d="" fill="#FDFEFD" transform="translate(0,0)"/>
<path d="" fill="#FFFFFF" transform="translate(0,0)"/>
<path d="" fill="#FDFEFD" transform="translate(0,0)"/>
<path d="" fill="#FEFFFD" transform="translate(0,0)"/>
<path d="" fill="#FEFEFD" transform="translate(0,0)"/>
<path d="" fill="#FDFEFC" transform="translate(0,0)"/>
<path d="" fill="#FFFFFF" transform="translate(0,0)"/>
<path d="" fill="#FDFEFC" transform="translate(0,0)"/>
<path d="" fill="#FFFFFE" transform="translate(0,0)"/>
<path d="" fill="#FFFFFF" transform="translate(0,0)"/>
<path d="" fill="#FDFEFC" transform="translate(0,0)"/>
<path d="" fill="#FFFEFE" transform="translate(0,0)"/>
<path d="" fill="#FDFEFD" transform="translate(0,0)"/>
<path d="" fill="#FEFEFC" transform="translate(0,0)"/>
<path d="" fill="#FEFEFD" transform="translate(0,0)"/>
<path d="" fill="#FDFEFD" transform="translate(0,0)"/>
<path d="" fill="#FDFEFC" transform="translate(0,0)"/>
<path d="" fill="#FFFFFF" transform="translate(0,0)"/>
<path d="" fill="#FDFEFC" transform="translate(0,0)"/>
<path d="" fill="#FEFEFC" transform="translate(0,0)"/>
<path d="" fill="#FEFEFD" transform="translate(0,0)"/>
<path d="" fill="#FEFEFC" transform="translate(0,0)"/>
<path d="" fill="#FFFEFE" transform="translate(0,0)"/>
<path d="" fill="#FFFFFF" transform="translate(0,0)"/>
<path d="" fill="#FEFEFD" transform="translate(0,0)"/>
<path d="" fill="#FEFEFD" transform="translate(0,0)"/>
<path d="" fill="#FEFEFD" transform="translate(0,0)"/>
<path d="" fill="#FEFFFE" transform="translate(0,0)"/>
<path d="" fill="#FEFFFE" transform="translate(0,0)"/>
<path d="" fill="#FDFEFC" transform="translate(0,0)"/>
<path d="" fill="#FDFEFC" transform="translate(0,0)"/>
<path d="" fill="#FEFFFD" transform="translate(0,0)"/>
<path d="" fill="#FEFFFE" transform="translate(0,0)"/>
<path d="" fill="#FDFEFD" transform="translate(0,0)"/>
<path d="" fill="#FDFEFC" transform="translate(0,0)"/>
<path d="" fill="#FFFFFF" transform="translate(0,0)"/>
<path d="" fill="#FEFEFC" transform="translate(0,0)"/>
<path d="" fill="#FDFEFC" transform="translate(0,0)"/>
<path d="" fill="#FEFEFD" transform="translate(0,0)"/>
<path d="" fill="#FDFEFD" transform="translate(0,0)"/>
<path d="" fill="#FDFEFC" transform="translate(0,0)"/>
<path d="" fill="#FEFFFE" transform="translate(0,0)"/>
<path d="" fill="#FDFEFA" transform="translate(0,0)"/>
<path d="" fill="#FDFEFD" transform="translate(0,0)"/>
<path d="" fill="#FDFEFB" transform="translate(0,0)"/>
<path d="" fill="#FBFDF7" transform="translate(0,0)"/>
<path d="" fill="#FEFEFD" transform="translate(0,0)"/>
<path d="" fill="#FDFEFD" transform="translate(0,0)"/>
<path d="" fill="#FDFEFC" transform="translate(0,0)"/>
<path d="" fill="#FFFFFF" transform="translate(0,0)"/>
<path d="" fill="#FEFFFE" transform="translate(0,0)"/>
<path d="" fill="#FDFEFB" transform="translate(0,0)"/>
<path d="" fill="#FDFEFC" transform="translate(0,0)"/>
<path d="" fill="#FFFFFF" transform="translate(0,0)"/>
<path d="" fill="#FEFFFE" transform="translate(0,0)"/>
<path d="" fill="#FEFEFC" transform="translate(0,0)"/>
<path d="" fill="#FEFEFD" transform="translate(0,0)"/>
<path d="" fill="#FDFEFC" transform="translate(0,0)"/>
<path d="" fill="#FFFFFF" transform="translate(0,0)"/>
<path d="" fill="#FFFEFD" transform="translate(0,0)"/>
<path d="" fill="#FEFEFC" transform="translate(0,0)"/>
<path d="" fill="#FEFEFD" transform="translate(0,0)"/>
<path d="" fill="#FEFEFD" transform="translate(0,0)"/>
<path d="" fill="#FDFEFC" transform="translate(0,0)"/>
<path d="" fill="#FFFFFE" transform="translate(0,0)"/>
<path d="" fill="#FEFFFD" transform="translate(0,0)"/>
<path d="" fill="#FFFFFF" transform="translate(0,0)"/>
<path d="" fill="#FFFEFE" transform="translate(0,0)"/>
<path d="" fill="#FEFEFD" transform="translate(0,0)"/>
<path d="" fill="#FFFFFF" transform="translate(0,0)"/>
<path d="" fill="#FDFEFD" transform="translate(0,0)"/>
<path d="" fill="#FDFEFB" transform="translate(0,0)"/>
<path d="" fill="#FDFEFD" transform="translate(0,0)"/>
<path d="" fill="#FDFEFD" transform="translate(0,0)"/>
<path d="" fill="#FDFEFC" transform="translate(0,0)"/>
<path d="" fill="#FDFEFD" transform="translate(0,0)"/>
<path d="" fill="#FCFDFA" transform="translate(0,0)"/>
<path d="" fill="#FDFEFC" transform="translate(0,0)"/>
<path d="" fill="#FEFFFD" transform="translate(0,0)"/>
<path d="" fill="#FDFEFC" transform="translate(0,0)"/>
<path d="" fill="#FFFFFF" transform="translate(0,0)"/>
<path d="" fill="#FDFEFC" transform="translate(0,0)"/>
<path d="" fill="#FDFDFA" transform="translate(0,0)"/>
<path d="" fill="#FDFDFA" transform="translate(0,0)"/>
<path d="" fill="#FDFEFC" transform="translate(0,0)"/>
<path d="" fill="#FEFFFE" transform="translate(0,0)"/>
<path d="" fill="#FDFEFC" transform="translate(0,0)"/>
<path d="" fill="#FDFEFC" transform="translate(0,0)"/>
<path d="" fill="#FDFEFC" transform="translate(0,0)"/>
<path d="" fill="#FDFEFC" transform="translate(0,0)"/>
<path d="" fill="#FFFEFD" transform="translate(0,0)"/>
<path d="" fill="#FDFEFC" transform="translate(0,0)"/>
<path d="" fill="#FEFEFB" transform="translate(0,0)"/>
<path d="" fill="#FFFEFD" transform="translate(0,0)"/>
<path d="" fill="#FFFFFF" transform="translate(0,0)"/>
<path d="" fill="#FFFFFE" transform="translate(0,0)"/>
<path d="" fill="#FFFFFF" transform="translate(0,0)"/>
<path d="" fill="#FEFFFD" transform="translate(0,0)"/>
<path d="" fill="#FFFFFE" transform="translate(0,0)"/>
<path d="" fill="#FDFEFB" transform="translate(0,0)"/>
<path d="" fill="#FEFEFC" transform="translate(0,0)"/>
<path d="" fill="#FDFEFD" transform="translate(0,0)"/>
<path d="" fill="#FFFEFD" transform="translate(0,0)"/>
<path d="" fill="#FDFEFD" transform="translate(0,0)"/>
<path d="" fill="#FEFFFD" transform="translate(0,0)"/>
<path d="" fill="#FDFEFC" transform="translate(0,0)"/>
<path d="" fill="#FDFEFB" transform="translate(0,0)"/>
<path d="" fill="#FDFEFC" transform="translate(0,0)"/>
<path d="" fill="#FDFEFC" transform="translate(0,0)"/>
<path d="" fill="#FEFFFE" transform="translate(0,0)"/>
<path d="" fill="#FDFEFB" transform="translate(0,0)"/>
<path d="" fill="#FDFEFD" transform="translate(0,0)"/>
<path d="" fill="#FDFEFD" transform="translate(0,0)"/>
<path d="" fill="#FDFEFB" transform="translate(0,0)"/>
<path d="" fill="#FDFEFC" transform="translate(0,0)"/>
<path d="" fill="#FDFEFB" transform="translate(0,0)"/>
<path d="" fill="#FDFEFC" transform="translate(0,0)"/>
<path d="" fill="#FEFEFC" transform="translate(0,0)"/>
<path d="" fill="#FEFEFC" transform="translate(0,0)"/>
<path d="" fill="#FEFEFC" transform="translate(0,0)"/>
<path d="" fill="#FDFEFB" transform="translate(0,0)"/>
<path d="" fill="#FFFFFE" transform="translate(0,0)"/>
<path d="" fill="#FEFEFC" transform="translate(0,0)"/>
<path d="" fill="#FEFEFC" transform="translate(0,0)"/>
<path d="" fill="#FDFEFC" transform="translate(0,0)"/>
<path d="" fill="#FFFFFF" transform="translate(0,0)"/>
<path d="" fill="#FDFEFD" transform="translate(0,0)"/>
<path d="" fill="#FFFFFF" transform="translate(0,0)"/>
<path d="" fill="#FEFEFB" transform="translate(0,0)"/>
<path d="" fill="#FFFEFD" transform="translate(0,0)"/>
<path d="" fill="#FDFDFA" transform="translate(0,0)"/>
<path d="" fill="#FFFEFD" transform="translate(0,0)"/>
<path d="" fill="#FFFEFD" transform="translate(0,0)"/>
<path d="" fill="#FDFEFC" transform="translate(0,0)"/>
<path d="" fill="#FFFEFD" transform="translate(0,0)"/>
<path d="" fill="#FDFDFB" transform="translate(0,0)"/>
<path d="" fill="#FFFFFE" transform="translate(0,0)"/>
<path d="" fill="#FFFEFD" transform="translate(0,0)"/>
<path d="" fill="#FFFFFF" transform="translate(0,0)"/>
<path d="" fill="#FFFFFD" transform="translate(0,0)"/>
<path d="" fill="#FFFFFF" transform="translate(0,0)"/>
<path d="" fill="#FFFEFD" transform="translate(0,0)"/>
<path d="" fill="#FFFEFD" transform="translate(0,0)"/>
<path d="" fill="#FFFEFE" transform="translate(0,0)"/>
<path d="" fill="#FFFFFF" transform="translate(0,0)"/>
<path d="" fill="#FFFEFE" transform="translate(0,0)"/>
<path d="" fill="#FFFFFF" transform="translate(0,0)"/>
<path d="" fill="#FFFFFE" transform="translate(0,0)"/>
<path d="" fill="#FFFFFF" transform="translate(0,0)"/>
<path d="" fill="#FEFEFC" transform="translate(0,0)"/>
<path d="" fill="#FFFFFF" transform="translate(0,0)"/>
<path d="" fill="#FDFEFC" transform="translate(0,0)"/>
<path d="" fill="#FFFEFD" transform="translate(0,0)"/>
<path d="" fill="#FFFEFD" transform="translate(0,0)"/>
<path d="" fill="#FFFFFE" transform="translate(0,0)"/>
<path d="" fill="#FDFEFC" transform="translate(0,0)"/>
<path d="" fill="#FCFDFA" transform="translate(0,0)"/>
<path d="" fill="#FFFFFF" transform="translate(0,0)"/>
<path d="" fill="#FFFEFD" transform="translate(0,0)"/>
<path d="" fill="#FFFEFE" transform="translate(0,0)"/>
<path d="" fill="#FEFEFD" transform="translate(0,0)"/>
<path d="" fill="#FEFFFE" transform="translate(0,0)"/>
<path d="" fill="#FFFFFF" transform="translate(0,0)"/>
<path d="" fill="#FDFEFB" transform="translate(0,0)"/>
<path d="" fill="#FEFFFD" transform="translate(0,0)"/>
<path d="" fill="#FDFEFC" transform="translate(0,0)"/>
<path d="" fill="#FEFFFD" transform="translate(0,0)"/>
<path d="" fill="#FDFEFB" transform="translate(0,0)"/>
<path d="" fill="#FEFEFD" transform="translate(0,0)"/>
<path d="" fill="#FEFEFD" transform="translate(0,0)"/>
<path d="" fill="#FDFEFB" transform="translate(0,0)"/>
<path d="" fill="#FEFFFE" transform="translate(0,0)"/>
<path d="" fill="#FDFEFC" transform="translate(0,0)"/>
<path d="" fill="#FDFEFD" transform="translate(0,0)"/>
<path d="" fill="#FEFFFD" transform="translate(0,0)"/>
<path d="" fill="#FDFEFC" transform="translate(0,0)"/>
<path d="" fill="#FDFEFD" transform="translate(0,0)"/>
<path d="" fill="#FEFEFD" transform="translate(0,0)"/>
<path d="" fill="#FDFEFC" transform="translate(0,0)"/>
<path d="" fill="#FDFEFB" transform="translate(0,0)"/>
<path d="" fill="#FDFEFB" transform="translate(0,0)"/>
<path d="" fill="#FDFEFB" transform="translate(0,0)"/>
<path d="" fill="#FDFEFB" transform="translate(0,0)"/>
<path d="" fill="#FDFEFB" transform="translate(0,0)"/>
<path d="" fill="#FDFEFB" transform="translate(0,0)"/>
<path d="" fill="#FDFEFB" transform="translate(0,0)"/>
<path d="" fill="#FDFEFB" transform="translate(0,0)"/>
</svg>
