<?xml version="1.0" encoding="UTF-8"?>
<svg version="1.1" xmlns="http://www.w3.org/2000/svg" width="640" height="594">
<path d="M0 0 C211.2 0 422.4 0 640 0 C640 196.02 640 392.04 640 594 C428.8 594 217.6 594 0 594 C0 397.98 0 201.96 0 0 Z " fill="#FEFEFE" transform="translate(0,0)"/>
<path d="M0 0 C2.3238841 2.00083295 4.15857618 4.35552291 6.0625 6.75 C7.21387606 8.13578796 8.36889163 9.51855932 9.52734375 10.8984375 C10.10726074 11.59163086 10.68717773 12.28482422 11.28466797 12.99902344 C18.64389283 21.58373835 27.05070179 29.11318906 36 36 C36.53931152 36.42104004 37.07862305 36.84208008 37.63427734 37.27587891 C80.09641153 70.26986062 133.84399957 86.29229142 187.43432617 80.07348633 C191.97348469 79.47768644 196.48855706 78.77703754 201 78 C202.26457031 77.7834375 203.52914063 77.566875 204.83203125 77.34375 C240.10971696 70.44427247 273.92012444 54.72214542 301 31 C301.79019531 30.319375 302.58039063 29.63875 303.39453125 28.9375 C313.32920011 20.20654707 323.53323728 10.98053342 331 0 C356.55544463 3.43129216 379.12359545 18.83908869 395.12890625 38.6328125 C396.85673116 41.03707893 398.44694323 43.47972307 400 46 C400.58136719 46.89847656 401.16273438 47.79695313 401.76171875 48.72265625 C436.89960073 105.35486083 417 207.19907538 417 253 C250.68 253 84.36 253 -87 253 C-87 61.08522727 -87 61.08522727 -54.875 27.5 C-43.1367254 16.06808147 -17.58355253 -3.59849447 0 0 Z " fill="#999999" transform="translate(155,341)"/>
<path d="M0 0 C1.23266602 0.40412109 1.23266602 0.40412109 2.49023438 0.81640625 C33.49386917 11.12863035 63.37151773 29.16793662 84 55 C84.77859375 55.96421875 85.5571875 56.9284375 86.359375 57.921875 C92.19255069 65.25523356 97.34314813 72.85778906 102 81 C102.53923096 81.9269165 102.53923096 81.9269165 103.08935547 82.87255859 C111.77351639 97.9313834 118.91132866 114.82698734 122 132 C122.19867676 133.09489746 122.19867676 133.09489746 122.40136719 134.21191406 C130.61715621 181.16191739 121.20562309 229.70018921 93.87890625 269.0546875 C89.5749193 274.91765759 84.98731061 280.41555979 80.0546875 285.7578125 C78.28310243 287.69106313 76.60217659 289.66289334 74.9375 291.6875 C49.2919147 321.7880629 5.67466422 339.88046117 -32.87109375 343.5625 C-80.70208702 347.31334762 -126.55191712 333.92545372 -163.4609375 302.93359375 C-166.02991781 300.67638289 -168.51949278 298.35413495 -171 296 C-171.52319824 295.51466797 -172.04639648 295.02933594 -172.58544922 294.52929688 C-203.5365693 265.69517981 -224.25703112 222.88366363 -226.15966797 180.43798828 C-226.6456793 164.44801386 -226.38615494 148.68895837 -223 133 C-222.8443457 132.24460938 -222.68869141 131.48921875 -222.52832031 130.7109375 C-215.874778 99.36890185 -199.92356723 71.11691848 -178 48 C-177.51611816 47.47825195 -177.03223633 46.95650391 -176.53369141 46.41894531 C-158.06383647 26.59345222 -135.19717651 12.61881605 -110 3 C-109.35353516 2.74879395 -108.70707031 2.49758789 -108.04101562 2.23876953 C-74.85259069 -10.46700101 -33.64433898 -11.20410908 0 0 Z " fill="#999999" transform="translate(369,7)"/>
</svg>
