<?xml version="1.0" standalone="no"?>
<!DOCTYPE svg PUBLIC "-//W3C//DTD SVG 20010904//EN"
 "http://www.w3.org/TR/2001/REC-SVG-20010904/DTD/svg10.dtd">
<svg version="1.0" xmlns="http://www.w3.org/2000/svg"
 width="1280.000000pt" height="720.000000pt" viewBox="0 0 1280.000000 720.000000"
 preserveAspectRatio="xMidYMid meet">

<g transform="translate(0.000000,720.000000) scale(0.100000,-0.100000)"
fill="#000000" stroke="none">
<path d="M0 3600 l0 -3600 6400 0 6400 0 0 3600 0 3600 -6400 0 -6400 0 0
-3600z m3918 1669 c246 -27 457 -94 669 -214 265 -149 524 -419 659 -687 19
-38 32 -73 29 -78 -5 -9 -63 -8 -68 1 -2 2 -16 29 -31 59 -331 633 -1068 975
-1766 820 -302 -67 -581 -219 -795 -435 -553 -555 -627 -1436 -172 -2067 247
-343 581 -558 1007 -649 152 -33 458 -33 608 -1 152 33 253 67 388 131 269
129 480 312 654 569 56 83 75 92 203 92 170 0 240 34 267 128 12 44 13 112 2
112 -5 0 -26 -9 -48 -19 -84 -41 -227 -52 -345 -27 -164 35 -253 124 -288 284
-16 78 -14 286 4 357 40 154 132 241 290 276 76 17 261 16 340 0 130 -28 233
-109 277 -220 22 -54 23 -71 26 -399 2 -217 0 -361 -7 -392 -16 -73 -50 -139
-95 -183 -86 -83 -171 -106 -429 -114 l-187 -6 -54 -66 c-508 -628 -1404 -804
-2109 -414 -243 135 -442 317 -592 543 -373 563 -376 1281 -9 1843 344 527
960 823 1572 756z m-618 -1179 c0 -121 2 -220 4 -220 2 0 28 11 58 25 78 36
189 49 299 35 202 -24 304 -116 345 -310 20 -96 14 -337 -11 -420 -34 -113
-115 -196 -228 -234 -118 -40 -333 -40 -462 -1 -105 31 -191 116 -228 227 -21
61 -22 78 -22 573 l0 510 100 16 c55 9 110 17 123 18 l22 1 0 -220z m1148 -47
l3 -133 172 -2 172 -3 -3 -30 c-2 -16 -11 -61 -20 -100 l-17 -70 -152 -3 -153
-3 0 -220 c0 -181 3 -227 16 -254 23 -50 71 -65 204 -65 82 0 110 -3 110 -12
-1 -7 -9 -51 -18 -98 l-18 -85 -149 0 c-189 0 -244 15 -314 83 -82 79 -82 83
-88 615 -4 343 -3 461 6 470 11 11 198 46 231 43 12 -1 15 -25 18 -133z m6262
-448 l0 -565 -40 0 -40 0 0 565 0 565 40 0 40 0 0 -565z m-2140 359 l0 -104
171 0 171 0 -7 -32 c-4 -18 -9 -35 -11 -37 -3 -3 -75 -5 -162 -5 l-157 -1 -3
-268 c-2 -249 -1 -272 17 -313 29 -65 75 -83 209 -84 l102 0 0 -27 c0 -53 -8
-56 -128 -51 -96 4 -117 8 -168 34 -46 23 -64 39 -84 74 l-25 45 -5 428 c-3
280 -2 432 5 437 12 9 56 18 68 12 4 -2 7 -50 7 -108z m-1960 -95 c127 -20
212 -91 247 -207 25 -79 24 -332 0 -414 -24 -79 -71 -137 -142 -173 -56 -29
-64 -30 -184 -30 -117 0 -130 2 -186 28 -33 16 -70 38 -82 49 l-23 21 0 -176
0 -177 -41 0 -40 0 3 418 c3 404 4 419 25 472 45 109 124 172 241 189 82 12
109 12 182 0z m843 -23 c81 -19 131 -57 164 -125 27 -54 28 -61 31 -255 5
-280 -13 -338 -125 -393 -56 -27 -63 -28 -208 -28 -142 0 -153 1 -200 26 -94
48 -135 149 -115 288 12 86 47 137 120 174 102 51 299 47 399 -9 24 -13 46
-24 49 -24 11 0 -7 159 -22 188 -20 38 -58 69 -105 83 -20 6 -110 12 -201 15
-139 3 -165 6 -164 19 3 60 -10 55 162 55 96 0 179 -6 215 -14z m896 -3 c-2
-50 -6 -52 -152 -57 -164 -6 -206 -16 -256 -61 -56 -50 -71 -108 -71 -267 0
-151 11 -202 52 -252 57 -69 93 -80 271 -84 149 -4 157 -5 157 -24 0 -10 -5
-28 -10 -39 -10 -17 -22 -19 -130 -19 -292 0 -395 77 -423 316 -20 175 13 337
86 412 70 73 130 90 330 91 134 1 147 -1 146 -16z m771 -276 c0 -243 3 -302
16 -340 28 -82 98 -117 229 -117 95 1 160 25 199 73 l31 39 5 316 5 317 40 0
40 0 3 -224 c5 -354 -11 -455 -85 -522 -43 -40 -85 -58 -168 -71 -146 -23
-291 16 -346 93 -46 65 -52 107 -57 412 -2 158 -1 294 2 302 3 10 19 15 46 15
l40 0 0 -293z m1160 278 c75 -20 129 -60 159 -120 25 -48 26 -57 29 -259 4
-229 -3 -279 -45 -335 -14 -18 -51 -45 -82 -60 -52 -24 -65 -26 -201 -26 -127
0 -151 3 -191 21 -98 46 -134 116 -127 251 5 102 29 157 87 197 98 68 310 74
433 13 l48 -24 0 62 c0 109 -29 162 -110 198 -38 17 -70 21 -215 24 -93 1
-171 7 -173 11 -1 5 2 21 7 35 l11 27 157 0 c106 0 176 -5 213 -15z"/>
<path d="M5270 3730 c-54 -12 -88 -36 -115 -80 -15 -27 -20 -58 -23 -153 -10
-258 37 -315 253 -305 102 4 127 15 169 72 18 24 21 45 25 159 2 77 -2 153 -8
184 -12 53 -47 98 -88 114 -36 13 -165 19 -213 9z"/>
<path d="M3460 3731 c-63 -9 -109 -39 -134 -86 -17 -33 -21 -63 -24 -171 -5
-170 8 -236 57 -285 53 -54 151 -72 261 -48 115 24 145 87 145 299 0 126 -3
151 -21 191 -41 89 -133 121 -284 100z"/>
<path d="M6430 3781 c-79 -17 -139 -68 -165 -141 -10 -27 -19 -93 -22 -165 -9
-201 25 -288 134 -342 51 -24 69 -28 148 -27 147 1 219 45 251 154 24 76 24
294 1 370 -19 63 -62 113 -115 136 -42 17 -180 27 -232 15z"/>
<path d="M7183 3469 c-50 -15 -90 -61 -102 -121 -23 -105 9 -185 87 -221 40
-18 65 -21 162 -21 98 1 121 4 157 23 52 26 71 53 79 113 16 117 -26 195 -119
223 -56 17 -212 19 -264 4z"/>
<path d="M10005 3468 c-72 -26 -105 -83 -105 -180 0 -86 21 -125 85 -158 45
-22 61 -25 161 -24 97 0 117 4 160 25 62 30 84 71 84 154 -1 88 -26 136 -86
166 -42 20 -66 24 -159 26 -60 1 -123 -3 -140 -9z"/>
</g>
</svg>
